<svg width="498" height="52" viewBox="0 0 498 52" fill="none" xmlns="http://www.w3.org/2000/svg">
<g filter="url(#filter0_d_83_79)">
<mask id="path-1-outside-1_83_79" maskUnits="userSpaceOnUse" x="0" y="-1" width="499" height="50" fill="black">
<rect fill="white" y="-1" width="499" height="50"/>
<path d="M8.15909 2.09091V37H0.897727V2.09091H8.15909ZM25.9077 37.5114C23.2145 37.5114 20.8963 36.9659 18.9531 35.875C17.0213 34.7727 15.5327 33.2159 14.4872 31.2045C13.4418 29.1818 12.919 26.7898 12.919 24.0284C12.919 21.3352 13.4418 18.9716 14.4872 16.9375C15.5327 14.9034 17.0043 13.3182 18.902 12.1818C20.8111 11.0455 23.0497 10.4773 25.6179 10.4773C27.3452 10.4773 28.9531 10.7557 30.4418 11.3125C31.9418 11.858 33.2486 12.6818 34.3622 13.7841C35.4872 14.8864 36.3622 16.2727 36.9872 17.9432C37.6122 19.6023 37.9247 21.5455 37.9247 23.7727V25.767H15.8168V21.267H31.0895C31.0895 20.2216 30.8622 19.2955 30.4077 18.4886C29.9531 17.6818 29.3224 17.0511 28.5156 16.5966C27.7202 16.1307 26.794 15.8977 25.7372 15.8977C24.6349 15.8977 23.6577 16.1534 22.8054 16.6648C21.9645 17.1648 21.3054 17.8409 20.8281 18.6932C20.3509 19.5341 20.1065 20.4716 20.0952 21.5057V25.7841C20.0952 27.0795 20.3338 28.1989 20.8111 29.142C21.2997 30.0852 21.9872 30.8125 22.8736 31.3239C23.7599 31.8352 24.8111 32.0909 26.027 32.0909C26.8338 32.0909 27.5724 31.9773 28.2429 31.75C28.9134 31.5227 29.4872 31.1818 29.9645 30.7273C30.4418 30.2727 30.8054 29.7159 31.0554 29.0568L37.7713 29.5C37.4304 31.1136 36.7315 32.5227 35.6747 33.7273C34.6293 34.9205 33.277 35.8523 31.6179 36.5227C29.9702 37.1818 28.0668 37.5114 25.9077 37.5114ZM66.3693 10.8182L57.2159 37H49.0341L39.8807 10.8182H47.5511L52.9886 29.5511H53.2614L58.6818 10.8182H66.3693ZM81.1733 37.5114C78.4801 37.5114 76.1619 36.9659 74.2188 35.875C72.2869 34.7727 70.7983 33.2159 69.7528 31.2045C68.7074 29.1818 68.1847 26.7898 68.1847 24.0284C68.1847 21.3352 68.7074 18.9716 69.7528 16.9375C70.7983 14.9034 72.2699 13.3182 74.1676 12.1818C76.0767 11.0455 78.3153 10.4773 80.8835 10.4773C82.6108 10.4773 84.2188 10.7557 85.7074 11.3125C87.2074 11.858 88.5142 12.6818 89.6278 13.7841C90.7528 14.8864 91.6278 16.2727 92.2528 17.9432C92.8778 19.6023 93.1903 21.5455 93.1903 23.7727V25.767H71.0824V21.267H86.3551C86.3551 20.2216 86.1278 19.2955 85.6733 18.4886C85.2188 17.6818 84.5881 17.0511 83.7812 16.5966C82.9858 16.1307 82.0597 15.8977 81.0028 15.8977C79.9006 15.8977 78.9233 16.1534 78.071 16.6648C77.2301 17.1648 76.571 17.8409 76.0938 18.6932C75.6165 19.5341 75.3722 20.4716 75.3608 21.5057V25.7841C75.3608 27.0795 75.5994 28.1989 76.0767 29.142C76.5653 30.0852 77.2528 30.8125 78.1392 31.3239C79.0256 31.8352 80.0767 32.0909 81.2926 32.0909C82.0994 32.0909 82.8381 31.9773 83.5085 31.75C84.179 31.5227 84.7528 31.1818 85.2301 30.7273C85.7074 30.2727 86.071 29.7159 86.321 29.0568L93.0369 29.5C92.696 31.1136 91.9972 32.5227 90.9403 33.7273C89.8949 34.9205 88.5426 35.8523 86.8835 36.5227C85.2358 37.1818 83.3324 37.5114 81.1733 37.5114ZM105.19 2.09091V37H97.929V2.09091H105.19ZM138.906 25.8523V10.8182H146.168V37H139.196V32.2443H138.923C138.332 33.7784 137.349 35.0114 135.974 35.9432C134.611 36.875 132.946 37.3409 130.98 37.3409C129.23 37.3409 127.69 36.9432 126.361 36.1477C125.031 35.3523 123.991 34.2216 123.241 32.7557C122.503 31.2898 122.128 29.5341 122.116 27.4886V10.8182H129.378V26.1932C129.389 27.7386 129.804 28.9602 130.622 29.858C131.44 30.7557 132.537 31.2045 133.912 31.2045C134.787 31.2045 135.605 31.0057 136.366 30.608C137.128 30.1989 137.741 29.5966 138.207 28.8011C138.685 28.0057 138.918 27.0227 138.906 25.8523ZM151.976 46.8182V10.8182H159.135V15.2159H159.459C159.777 14.5114 160.237 13.7955 160.839 13.0682C161.453 12.3295 162.249 11.7159 163.226 11.2273C164.214 10.7273 165.442 10.4773 166.908 10.4773C168.817 10.4773 170.578 10.9773 172.192 11.9773C173.805 12.9659 175.095 14.4602 176.061 16.4602C177.027 18.4489 177.51 20.9432 177.51 23.9432C177.51 26.8636 177.038 29.3295 176.095 31.3409C175.163 33.3409 173.891 34.858 172.277 35.892C170.675 36.9148 168.879 37.4261 166.891 37.4261C165.482 37.4261 164.283 37.1932 163.294 36.7273C162.317 36.2614 161.516 35.6761 160.891 34.9716C160.266 34.2557 159.788 33.5341 159.459 32.8068H159.237V46.8182H151.976ZM159.084 23.9091C159.084 25.4659 159.3 26.8239 159.732 27.983C160.163 29.142 160.788 30.0455 161.607 30.6932C162.425 31.3295 163.419 31.6477 164.589 31.6477C165.771 31.6477 166.771 31.3239 167.589 30.6761C168.408 30.017 169.027 29.108 169.447 27.9489C169.879 26.7784 170.095 25.4318 170.095 23.9091C170.095 22.3977 169.885 21.0682 169.464 19.9205C169.044 18.7727 168.425 17.875 167.607 17.2273C166.788 16.5795 165.783 16.2557 164.589 16.2557C163.408 16.2557 162.408 16.5682 161.589 17.1932C160.783 17.8182 160.163 18.7045 159.732 19.8523C159.3 21 159.084 22.3523 159.084 23.9091ZM197.943 46.8182C197.023 46.8182 196.159 46.7443 195.352 46.5966C194.557 46.4602 193.898 46.2841 193.375 46.0682L195.011 40.6477C195.864 40.9091 196.631 41.0511 197.312 41.0739C198.006 41.0966 198.602 40.9375 199.102 40.5966C199.614 40.2557 200.028 39.6761 200.347 38.858L200.773 37.75L191.381 10.8182H199.017L204.438 30.0455H204.71L210.182 10.8182H217.869L207.693 39.8295C207.205 41.2386 206.54 42.4659 205.699 43.5114C204.869 44.5682 203.818 45.3807 202.545 45.9489C201.273 46.5284 199.739 46.8182 197.943 46.8182ZM232.571 37.5114C229.923 37.5114 227.634 36.9489 225.702 35.8239C223.781 34.6875 222.298 33.108 221.253 31.0852C220.207 29.0511 219.685 26.6932 219.685 24.0114C219.685 21.3068 220.207 18.9432 221.253 16.9205C222.298 14.8864 223.781 13.3068 225.702 12.1818C227.634 11.0455 229.923 10.4773 232.571 10.4773C235.219 10.4773 237.503 11.0455 239.423 12.1818C241.355 13.3068 242.844 14.8864 243.889 16.9205C244.935 18.9432 245.457 21.3068 245.457 24.0114C245.457 26.6932 244.935 29.0511 243.889 31.0852C242.844 33.108 241.355 34.6875 239.423 35.8239C237.503 36.9489 235.219 37.5114 232.571 37.5114ZM232.605 31.8864C233.81 31.8864 234.815 31.5455 235.622 30.8636C236.429 30.1705 237.037 29.2273 237.446 28.0341C237.866 26.8409 238.077 25.483 238.077 23.9602C238.077 22.4375 237.866 21.0795 237.446 19.8864C237.037 18.6932 236.429 17.75 235.622 17.0568C234.815 16.3636 233.81 16.017 232.605 16.017C231.389 16.017 230.366 16.3636 229.537 17.0568C228.719 17.75 228.099 18.6932 227.679 19.8864C227.27 21.0795 227.065 22.4375 227.065 23.9602C227.065 25.483 227.27 26.8409 227.679 28.0341C228.099 29.2273 228.719 30.1705 229.537 30.8636C230.366 31.5455 231.389 31.8864 232.605 31.8864ZM266.969 25.8523V10.8182H274.23V37H267.259V32.2443H266.986C266.395 33.7784 265.412 35.0114 264.037 35.9432C262.673 36.875 261.009 37.3409 259.043 37.3409C257.293 37.3409 255.753 36.9432 254.423 36.1477C253.094 35.3523 252.054 34.2216 251.304 32.7557C250.565 31.2898 250.19 29.5341 250.179 27.4886V10.8182H257.44V26.1932C257.452 27.7386 257.866 28.9602 258.685 29.858C259.503 30.7557 260.599 31.2045 261.974 31.2045C262.849 31.2045 263.668 31.0057 264.429 30.608C265.19 30.1989 265.804 29.5966 266.27 28.8011C266.747 28.0057 266.98 27.0227 266.969 25.8523ZM280.038 37V10.8182H287.078V15.3864H287.351C287.828 13.7614 288.629 12.5341 289.754 11.7045C290.879 10.8636 292.175 10.4432 293.641 10.4432C294.004 10.4432 294.396 10.4659 294.817 10.5114C295.237 10.5568 295.607 10.6193 295.925 10.6989V17.142C295.584 17.0398 295.112 16.9489 294.51 16.8693C293.908 16.7898 293.357 16.75 292.857 16.75C291.788 16.75 290.834 16.983 289.993 17.4489C289.163 17.9034 288.504 18.5398 288.016 19.358C287.538 20.1761 287.3 21.1193 287.3 22.1875V37H280.038ZM318.05 2.09091V37H310.788V2.09091H318.05ZM335.798 37.5114C333.105 37.5114 330.787 36.9659 328.844 35.875C326.912 34.7727 325.423 33.2159 324.378 31.2045C323.332 29.1818 322.81 26.7898 322.81 24.0284C322.81 21.3352 323.332 18.9716 324.378 16.9375C325.423 14.9034 326.895 13.3182 328.793 12.1818C330.702 11.0455 332.94 10.4773 335.509 10.4773C337.236 10.4773 338.844 10.7557 340.332 11.3125C341.832 11.858 343.139 12.6818 344.253 13.7841C345.378 14.8864 346.253 16.2727 346.878 17.9432C347.503 19.6023 347.815 21.5455 347.815 23.7727V25.767H325.707V21.267H340.98C340.98 20.2216 340.753 19.2955 340.298 18.4886C339.844 17.6818 339.213 17.0511 338.406 16.5966C337.611 16.1307 336.685 15.8977 335.628 15.8977C334.526 15.8977 333.548 16.1534 332.696 16.6648C331.855 17.1648 331.196 17.8409 330.719 18.6932C330.241 19.5341 329.997 20.4716 329.986 21.5057V25.7841C329.986 27.0795 330.224 28.1989 330.702 29.142C331.19 30.0852 331.878 30.8125 332.764 31.3239C333.651 31.8352 334.702 32.0909 335.918 32.0909C336.724 32.0909 337.463 31.9773 338.134 31.75C338.804 31.5227 339.378 31.1818 339.855 30.7273C340.332 30.2727 340.696 29.7159 340.946 29.0568L347.662 29.5C347.321 31.1136 346.622 32.5227 345.565 33.7273C344.52 34.9205 343.168 35.8523 341.509 36.5227C339.861 37.1818 337.957 37.5114 335.798 37.5114ZM360.02 37.4943C358.349 37.4943 356.861 37.2045 355.554 36.625C354.247 36.0341 353.213 35.1648 352.452 34.017C351.702 32.858 351.327 31.4148 351.327 29.6875C351.327 28.233 351.594 27.0114 352.128 26.0227C352.662 25.0341 353.389 24.2386 354.31 23.6364C355.23 23.0341 356.276 22.5795 357.446 22.2727C358.628 21.9659 359.866 21.75 361.162 21.625C362.685 21.4659 363.912 21.3182 364.844 21.1818C365.776 21.0341 366.452 20.8182 366.872 20.5341C367.293 20.25 367.503 19.8295 367.503 19.2727V19.1705C367.503 18.0909 367.162 17.2557 366.48 16.6648C365.81 16.0739 364.855 15.7784 363.616 15.7784C362.31 15.7784 361.27 16.0682 360.497 16.6477C359.724 17.2159 359.213 17.9318 358.963 18.7955L352.247 18.25C352.588 16.6591 353.259 15.2841 354.259 14.125C355.259 12.9545 356.548 12.0568 358.128 11.4318C359.719 10.7955 361.56 10.4773 363.651 10.4773C365.105 10.4773 366.497 10.6477 367.827 10.9886C369.168 11.3295 370.355 11.858 371.389 12.5739C372.435 13.2898 373.259 14.2102 373.861 15.3352C374.463 16.4489 374.764 17.7841 374.764 19.3409V37H367.878V33.3693H367.673C367.253 34.1875 366.69 34.9091 365.986 35.5341C365.281 36.1477 364.435 36.6307 363.446 36.983C362.457 37.3239 361.315 37.4943 360.02 37.4943ZM362.099 32.483C363.168 32.483 364.111 32.2727 364.929 31.8523C365.747 31.4205 366.389 30.8409 366.855 30.1136C367.321 29.3864 367.554 28.5625 367.554 27.642V24.8636C367.327 25.0114 367.014 25.1477 366.616 25.2727C366.23 25.3864 365.793 25.4943 365.304 25.5966C364.815 25.6875 364.327 25.7727 363.838 25.8523C363.349 25.9205 362.906 25.983 362.509 26.0398C361.656 26.1648 360.912 26.3636 360.276 26.6364C359.639 26.9091 359.145 27.2784 358.793 27.7443C358.44 28.1989 358.264 28.767 358.264 29.4489C358.264 30.4375 358.622 31.1932 359.338 31.7159C360.065 32.2273 360.986 32.483 362.099 32.483ZM380.398 37V10.8182H387.438V15.3864H387.71C388.188 13.7614 388.989 12.5341 390.114 11.7045C391.239 10.8636 392.534 10.4432 394 10.4432C394.364 10.4432 394.756 10.4659 395.176 10.5114C395.597 10.5568 395.966 10.6193 396.284 10.6989V17.142C395.943 17.0398 395.472 16.9489 394.869 16.8693C394.267 16.7898 393.716 16.75 393.216 16.75C392.148 16.75 391.193 16.983 390.352 17.4489C389.523 17.9034 388.864 18.5398 388.375 19.358C387.898 20.1761 387.659 21.1193 387.659 22.1875V37H380.398ZM407.3 21.8636V37H400.038V10.8182H406.959V15.4375H407.266C407.845 13.9148 408.817 12.7102 410.18 11.8239C411.544 10.9261 413.197 10.4773 415.141 10.4773C416.959 10.4773 418.544 10.875 419.896 11.6705C421.249 12.4659 422.3 13.6023 423.05 15.0795C423.8 16.5455 424.175 18.2955 424.175 20.3295V37H416.913V21.625C416.925 20.0227 416.516 18.7727 415.686 17.875C414.857 16.9659 413.714 16.5114 412.26 16.5114C411.283 16.5114 410.419 16.7216 409.669 17.142C408.93 17.5625 408.351 18.1761 407.93 18.983C407.521 19.7784 407.311 20.7386 407.3 21.8636ZM429.898 37V10.8182H437.159V37H429.898ZM433.545 7.44318C432.466 7.44318 431.54 7.08523 430.767 6.36932C430.006 5.64204 429.625 4.77273 429.625 3.76136C429.625 2.76136 430.006 1.90341 430.767 1.1875C431.54 0.460226 432.466 0.0965891 433.545 0.0965891C434.625 0.0965891 435.545 0.460226 436.307 1.1875C437.08 1.90341 437.466 2.76136 437.466 3.76136C437.466 4.77273 437.08 5.64204 436.307 6.36932C435.545 7.08523 434.625 7.44318 433.545 7.44318ZM450.237 21.8636V37H442.976V10.8182H449.896V15.4375H450.203C450.783 13.9148 451.754 12.7102 453.118 11.8239C454.482 10.9261 456.135 10.4773 458.078 10.4773C459.896 10.4773 461.482 10.875 462.834 11.6705C464.186 12.4659 465.237 13.6023 465.987 15.0795C466.737 16.5455 467.112 18.2955 467.112 20.3295V37H459.851V21.625C459.862 20.0227 459.453 18.7727 458.624 17.875C457.794 16.9659 456.652 16.5114 455.197 16.5114C454.22 16.5114 453.357 16.7216 452.607 17.142C451.868 17.5625 451.288 18.1761 450.868 18.983C450.459 19.7784 450.249 20.7386 450.237 21.8636ZM484.631 47.3636C482.278 47.3636 480.261 47.0398 478.58 46.392C476.909 45.7557 475.58 44.8864 474.591 43.7841C473.602 42.6818 472.96 41.4432 472.665 40.0682L479.381 39.1648C479.585 39.6875 479.909 40.1761 480.352 40.6307C480.795 41.0852 481.381 41.4489 482.108 41.7216C482.847 42.0057 483.744 42.1477 484.801 42.1477C486.381 42.1477 487.682 41.7614 488.705 40.9886C489.739 40.2273 490.256 38.9489 490.256 37.1534V32.3636H489.949C489.631 33.0909 489.153 33.7784 488.517 34.4261C487.881 35.0739 487.062 35.6023 486.062 36.0114C485.062 36.4205 483.869 36.625 482.483 36.625C480.517 36.625 478.727 36.1705 477.114 35.2614C475.511 34.3409 474.233 32.9375 473.278 31.0511C472.335 29.1534 471.864 26.7557 471.864 23.858C471.864 20.892 472.347 18.4148 473.312 16.4261C474.278 14.4375 475.563 12.9489 477.165 11.9602C478.778 10.9716 480.545 10.4773 482.466 10.4773C483.932 10.4773 485.159 10.7273 486.148 11.2273C487.136 11.7159 487.932 12.3295 488.534 13.0682C489.148 13.7955 489.619 14.5114 489.949 15.2159H490.222V10.8182H497.432V37.2557C497.432 39.483 496.886 41.3466 495.795 42.8466C494.705 44.3466 493.193 45.4716 491.261 46.2216C489.341 46.983 487.131 47.3636 484.631 47.3636ZM484.784 31.1705C485.955 31.1705 486.943 30.8807 487.75 30.3011C488.568 29.7102 489.193 28.8693 489.625 27.7784C490.068 26.6761 490.29 25.358 490.29 23.8239C490.29 22.2898 490.074 20.9602 489.642 19.8352C489.21 18.6989 488.585 17.8182 487.767 17.1932C486.949 16.5682 485.955 16.2557 484.784 16.2557C483.591 16.2557 482.585 16.5795 481.767 17.2273C480.949 17.8636 480.33 18.75 479.909 19.8864C479.489 21.0227 479.278 22.3352 479.278 23.8239C479.278 25.3352 479.489 26.642 479.909 27.7443C480.341 28.8352 480.96 29.6818 481.767 30.2841C482.585 30.875 483.591 31.1705 484.784 31.1705Z"/>
</mask>
<path d="M8.15909 2.09091V37H0.897727V2.09091H8.15909ZM25.9077 37.5114C23.2145 37.5114 20.8963 36.9659 18.9531 35.875C17.0213 34.7727 15.5327 33.2159 14.4872 31.2045C13.4418 29.1818 12.919 26.7898 12.919 24.0284C12.919 21.3352 13.4418 18.9716 14.4872 16.9375C15.5327 14.9034 17.0043 13.3182 18.902 12.1818C20.8111 11.0455 23.0497 10.4773 25.6179 10.4773C27.3452 10.4773 28.9531 10.7557 30.4418 11.3125C31.9418 11.858 33.2486 12.6818 34.3622 13.7841C35.4872 14.8864 36.3622 16.2727 36.9872 17.9432C37.6122 19.6023 37.9247 21.5455 37.9247 23.7727V25.767H15.8168V21.267H31.0895C31.0895 20.2216 30.8622 19.2955 30.4077 18.4886C29.9531 17.6818 29.3224 17.0511 28.5156 16.5966C27.7202 16.1307 26.794 15.8977 25.7372 15.8977C24.6349 15.8977 23.6577 16.1534 22.8054 16.6648C21.9645 17.1648 21.3054 17.8409 20.8281 18.6932C20.3509 19.5341 20.1065 20.4716 20.0952 21.5057V25.7841C20.0952 27.0795 20.3338 28.1989 20.8111 29.142C21.2997 30.0852 21.9872 30.8125 22.8736 31.3239C23.7599 31.8352 24.8111 32.0909 26.027 32.0909C26.8338 32.0909 27.5724 31.9773 28.2429 31.75C28.9134 31.5227 29.4872 31.1818 29.9645 30.7273C30.4418 30.2727 30.8054 29.7159 31.0554 29.0568L37.7713 29.5C37.4304 31.1136 36.7315 32.5227 35.6747 33.7273C34.6293 34.9205 33.277 35.8523 31.6179 36.5227C29.9702 37.1818 28.0668 37.5114 25.9077 37.5114ZM66.3693 10.8182L57.2159 37H49.0341L39.8807 10.8182H47.5511L52.9886 29.5511H53.2614L58.6818 10.8182H66.3693ZM81.1733 37.5114C78.4801 37.5114 76.1619 36.9659 74.2188 35.875C72.2869 34.7727 70.7983 33.2159 69.7528 31.2045C68.7074 29.1818 68.1847 26.7898 68.1847 24.0284C68.1847 21.3352 68.7074 18.9716 69.7528 16.9375C70.7983 14.9034 72.2699 13.3182 74.1676 12.1818C76.0767 11.0455 78.3153 10.4773 80.8835 10.4773C82.6108 10.4773 84.2188 10.7557 85.7074 11.3125C87.2074 11.858 88.5142 12.6818 89.6278 13.7841C90.7528 14.8864 91.6278 16.2727 92.2528 17.9432C92.8778 19.6023 93.1903 21.5455 93.1903 23.7727V25.767H71.0824V21.267H86.3551C86.3551 20.2216 86.1278 19.2955 85.6733 18.4886C85.2188 17.6818 84.5881 17.0511 83.7812 16.5966C82.9858 16.1307 82.0597 15.8977 81.0028 15.8977C79.9006 15.8977 78.9233 16.1534 78.071 16.6648C77.2301 17.1648 76.571 17.8409 76.0938 18.6932C75.6165 19.5341 75.3722 20.4716 75.3608 21.5057V25.7841C75.3608 27.0795 75.5994 28.1989 76.0767 29.142C76.5653 30.0852 77.2528 30.8125 78.1392 31.3239C79.0256 31.8352 80.0767 32.0909 81.2926 32.0909C82.0994 32.0909 82.8381 31.9773 83.5085 31.75C84.179 31.5227 84.7528 31.1818 85.2301 30.7273C85.7074 30.2727 86.071 29.7159 86.321 29.0568L93.0369 29.5C92.696 31.1136 91.9972 32.5227 90.9403 33.7273C89.8949 34.9205 88.5426 35.8523 86.8835 36.5227C85.2358 37.1818 83.3324 37.5114 81.1733 37.5114ZM105.19 2.09091V37H97.929V2.09091H105.19ZM138.906 25.8523V10.8182H146.168V37H139.196V32.2443H138.923C138.332 33.7784 137.349 35.0114 135.974 35.9432C134.611 36.875 132.946 37.3409 130.98 37.3409C129.23 37.3409 127.69 36.9432 126.361 36.1477C125.031 35.3523 123.991 34.2216 123.241 32.7557C122.503 31.2898 122.128 29.5341 122.116 27.4886V10.8182H129.378V26.1932C129.389 27.7386 129.804 28.9602 130.622 29.858C131.44 30.7557 132.537 31.2045 133.912 31.2045C134.787 31.2045 135.605 31.0057 136.366 30.608C137.128 30.1989 137.741 29.5966 138.207 28.8011C138.685 28.0057 138.918 27.0227 138.906 25.8523ZM151.976 46.8182V10.8182H159.135V15.2159H159.459C159.777 14.5114 160.237 13.7955 160.839 13.0682C161.453 12.3295 162.249 11.7159 163.226 11.2273C164.214 10.7273 165.442 10.4773 166.908 10.4773C168.817 10.4773 170.578 10.9773 172.192 11.9773C173.805 12.9659 175.095 14.4602 176.061 16.4602C177.027 18.4489 177.51 20.9432 177.51 23.9432C177.51 26.8636 177.038 29.3295 176.095 31.3409C175.163 33.3409 173.891 34.858 172.277 35.892C170.675 36.9148 168.879 37.4261 166.891 37.4261C165.482 37.4261 164.283 37.1932 163.294 36.7273C162.317 36.2614 161.516 35.6761 160.891 34.9716C160.266 34.2557 159.788 33.5341 159.459 32.8068H159.237V46.8182H151.976ZM159.084 23.9091C159.084 25.4659 159.3 26.8239 159.732 27.983C160.163 29.142 160.788 30.0455 161.607 30.6932C162.425 31.3295 163.419 31.6477 164.589 31.6477C165.771 31.6477 166.771 31.3239 167.589 30.6761C168.408 30.017 169.027 29.108 169.447 27.9489C169.879 26.7784 170.095 25.4318 170.095 23.9091C170.095 22.3977 169.885 21.0682 169.464 19.9205C169.044 18.7727 168.425 17.875 167.607 17.2273C166.788 16.5795 165.783 16.2557 164.589 16.2557C163.408 16.2557 162.408 16.5682 161.589 17.1932C160.783 17.8182 160.163 18.7045 159.732 19.8523C159.3 21 159.084 22.3523 159.084 23.9091ZM197.943 46.8182C197.023 46.8182 196.159 46.7443 195.352 46.5966C194.557 46.4602 193.898 46.2841 193.375 46.0682L195.011 40.6477C195.864 40.9091 196.631 41.0511 197.312 41.0739C198.006 41.0966 198.602 40.9375 199.102 40.5966C199.614 40.2557 200.028 39.6761 200.347 38.858L200.773 37.75L191.381 10.8182H199.017L204.438 30.0455H204.71L210.182 10.8182H217.869L207.693 39.8295C207.205 41.2386 206.54 42.4659 205.699 43.5114C204.869 44.5682 203.818 45.3807 202.545 45.9489C201.273 46.5284 199.739 46.8182 197.943 46.8182ZM232.571 37.5114C229.923 37.5114 227.634 36.9489 225.702 35.8239C223.781 34.6875 222.298 33.108 221.253 31.0852C220.207 29.0511 219.685 26.6932 219.685 24.0114C219.685 21.3068 220.207 18.9432 221.253 16.9205C222.298 14.8864 223.781 13.3068 225.702 12.1818C227.634 11.0455 229.923 10.4773 232.571 10.4773C235.219 10.4773 237.503 11.0455 239.423 12.1818C241.355 13.3068 242.844 14.8864 243.889 16.9205C244.935 18.9432 245.457 21.3068 245.457 24.0114C245.457 26.6932 244.935 29.0511 243.889 31.0852C242.844 33.108 241.355 34.6875 239.423 35.8239C237.503 36.9489 235.219 37.5114 232.571 37.5114ZM232.605 31.8864C233.81 31.8864 234.815 31.5455 235.622 30.8636C236.429 30.1705 237.037 29.2273 237.446 28.0341C237.866 26.8409 238.077 25.483 238.077 23.9602C238.077 22.4375 237.866 21.0795 237.446 19.8864C237.037 18.6932 236.429 17.75 235.622 17.0568C234.815 16.3636 233.81 16.017 232.605 16.017C231.389 16.017 230.366 16.3636 229.537 17.0568C228.719 17.75 228.099 18.6932 227.679 19.8864C227.27 21.0795 227.065 22.4375 227.065 23.9602C227.065 25.483 227.27 26.8409 227.679 28.0341C228.099 29.2273 228.719 30.1705 229.537 30.8636C230.366 31.5455 231.389 31.8864 232.605 31.8864ZM266.969 25.8523V10.8182H274.23V37H267.259V32.2443H266.986C266.395 33.7784 265.412 35.0114 264.037 35.9432C262.673 36.875 261.009 37.3409 259.043 37.3409C257.293 37.3409 255.753 36.9432 254.423 36.1477C253.094 35.3523 252.054 34.2216 251.304 32.7557C250.565 31.2898 250.19 29.5341 250.179 27.4886V10.8182H257.44V26.1932C257.452 27.7386 257.866 28.9602 258.685 29.858C259.503 30.7557 260.599 31.2045 261.974 31.2045C262.849 31.2045 263.668 31.0057 264.429 30.608C265.19 30.1989 265.804 29.5966 266.27 28.8011C266.747 28.0057 266.98 27.0227 266.969 25.8523ZM280.038 37V10.8182H287.078V15.3864H287.351C287.828 13.7614 288.629 12.5341 289.754 11.7045C290.879 10.8636 292.175 10.4432 293.641 10.4432C294.004 10.4432 294.396 10.4659 294.817 10.5114C295.237 10.5568 295.607 10.6193 295.925 10.6989V17.142C295.584 17.0398 295.112 16.9489 294.51 16.8693C293.908 16.7898 293.357 16.75 292.857 16.75C291.788 16.75 290.834 16.983 289.993 17.4489C289.163 17.9034 288.504 18.5398 288.016 19.358C287.538 20.1761 287.3 21.1193 287.3 22.1875V37H280.038ZM318.05 2.09091V37H310.788V2.09091H318.05ZM335.798 37.5114C333.105 37.5114 330.787 36.9659 328.844 35.875C326.912 34.7727 325.423 33.2159 324.378 31.2045C323.332 29.1818 322.81 26.7898 322.81 24.0284C322.81 21.3352 323.332 18.9716 324.378 16.9375C325.423 14.9034 326.895 13.3182 328.793 12.1818C330.702 11.0455 332.94 10.4773 335.509 10.4773C337.236 10.4773 338.844 10.7557 340.332 11.3125C341.832 11.858 343.139 12.6818 344.253 13.7841C345.378 14.8864 346.253 16.2727 346.878 17.9432C347.503 19.6023 347.815 21.5455 347.815 23.7727V25.767H325.707V21.267H340.98C340.98 20.2216 340.753 19.2955 340.298 18.4886C339.844 17.6818 339.213 17.0511 338.406 16.5966C337.611 16.1307 336.685 15.8977 335.628 15.8977C334.526 15.8977 333.548 16.1534 332.696 16.6648C331.855 17.1648 331.196 17.8409 330.719 18.6932C330.241 19.5341 329.997 20.4716 329.986 21.5057V25.7841C329.986 27.0795 330.224 28.1989 330.702 29.142C331.19 30.0852 331.878 30.8125 332.764 31.3239C333.651 31.8352 334.702 32.0909 335.918 32.0909C336.724 32.0909 337.463 31.9773 338.134 31.75C338.804 31.5227 339.378 31.1818 339.855 30.7273C340.332 30.2727 340.696 29.7159 340.946 29.0568L347.662 29.5C347.321 31.1136 346.622 32.5227 345.565 33.7273C344.52 34.9205 343.168 35.8523 341.509 36.5227C339.861 37.1818 337.957 37.5114 335.798 37.5114ZM360.02 37.4943C358.349 37.4943 356.861 37.2045 355.554 36.625C354.247 36.0341 353.213 35.1648 352.452 34.017C351.702 32.858 351.327 31.4148 351.327 29.6875C351.327 28.233 351.594 27.0114 352.128 26.0227C352.662 25.0341 353.389 24.2386 354.31 23.6364C355.23 23.0341 356.276 22.5795 357.446 22.2727C358.628 21.9659 359.866 21.75 361.162 21.625C362.685 21.4659 363.912 21.3182 364.844 21.1818C365.776 21.0341 366.452 20.8182 366.872 20.5341C367.293 20.25 367.503 19.8295 367.503 19.2727V19.1705C367.503 18.0909 367.162 17.2557 366.48 16.6648C365.81 16.0739 364.855 15.7784 363.616 15.7784C362.31 15.7784 361.27 16.0682 360.497 16.6477C359.724 17.2159 359.213 17.9318 358.963 18.7955L352.247 18.25C352.588 16.6591 353.259 15.2841 354.259 14.125C355.259 12.9545 356.548 12.0568 358.128 11.4318C359.719 10.7955 361.56 10.4773 363.651 10.4773C365.105 10.4773 366.497 10.6477 367.827 10.9886C369.168 11.3295 370.355 11.858 371.389 12.5739C372.435 13.2898 373.259 14.2102 373.861 15.3352C374.463 16.4489 374.764 17.7841 374.764 19.3409V37H367.878V33.3693H367.673C367.253 34.1875 366.69 34.9091 365.986 35.5341C365.281 36.1477 364.435 36.6307 363.446 36.983C362.457 37.3239 361.315 37.4943 360.02 37.4943ZM362.099 32.483C363.168 32.483 364.111 32.2727 364.929 31.8523C365.747 31.4205 366.389 30.8409 366.855 30.1136C367.321 29.3864 367.554 28.5625 367.554 27.642V24.8636C367.327 25.0114 367.014 25.1477 366.616 25.2727C366.23 25.3864 365.793 25.4943 365.304 25.5966C364.815 25.6875 364.327 25.7727 363.838 25.8523C363.349 25.9205 362.906 25.983 362.509 26.0398C361.656 26.1648 360.912 26.3636 360.276 26.6364C359.639 26.9091 359.145 27.2784 358.793 27.7443C358.44 28.1989 358.264 28.767 358.264 29.4489C358.264 30.4375 358.622 31.1932 359.338 31.7159C360.065 32.2273 360.986 32.483 362.099 32.483ZM380.398 37V10.8182H387.438V15.3864H387.71C388.188 13.7614 388.989 12.5341 390.114 11.7045C391.239 10.8636 392.534 10.4432 394 10.4432C394.364 10.4432 394.756 10.4659 395.176 10.5114C395.597 10.5568 395.966 10.6193 396.284 10.6989V17.142C395.943 17.0398 395.472 16.9489 394.869 16.8693C394.267 16.7898 393.716 16.75 393.216 16.75C392.148 16.75 391.193 16.983 390.352 17.4489C389.523 17.9034 388.864 18.5398 388.375 19.358C387.898 20.1761 387.659 21.1193 387.659 22.1875V37H380.398ZM407.3 21.8636V37H400.038V10.8182H406.959V15.4375H407.266C407.845 13.9148 408.817 12.7102 410.18 11.8239C411.544 10.9261 413.197 10.4773 415.141 10.4773C416.959 10.4773 418.544 10.875 419.896 11.6705C421.249 12.4659 422.3 13.6023 423.05 15.0795C423.8 16.5455 424.175 18.2955 424.175 20.3295V37H416.913V21.625C416.925 20.0227 416.516 18.7727 415.686 17.875C414.857 16.9659 413.714 16.5114 412.26 16.5114C411.283 16.5114 410.419 16.7216 409.669 17.142C408.93 17.5625 408.351 18.1761 407.93 18.983C407.521 19.7784 407.311 20.7386 407.3 21.8636ZM429.898 37V10.8182H437.159V37H429.898ZM433.545 7.44318C432.466 7.44318 431.54 7.08523 430.767 6.36932C430.006 5.64204 429.625 4.77273 429.625 3.76136C429.625 2.76136 430.006 1.90341 430.767 1.1875C431.54 0.460226 432.466 0.0965891 433.545 0.0965891C434.625 0.0965891 435.545 0.460226 436.307 1.1875C437.08 1.90341 437.466 2.76136 437.466 3.76136C437.466 4.77273 437.08 5.64204 436.307 6.36932C435.545 7.08523 434.625 7.44318 433.545 7.44318ZM450.237 21.8636V37H442.976V10.8182H449.896V15.4375H450.203C450.783 13.9148 451.754 12.7102 453.118 11.8239C454.482 10.9261 456.135 10.4773 458.078 10.4773C459.896 10.4773 461.482 10.875 462.834 11.6705C464.186 12.4659 465.237 13.6023 465.987 15.0795C466.737 16.5455 467.112 18.2955 467.112 20.3295V37H459.851V21.625C459.862 20.0227 459.453 18.7727 458.624 17.875C457.794 16.9659 456.652 16.5114 455.197 16.5114C454.22 16.5114 453.357 16.7216 452.607 17.142C451.868 17.5625 451.288 18.1761 450.868 18.983C450.459 19.7784 450.249 20.7386 450.237 21.8636ZM484.631 47.3636C482.278 47.3636 480.261 47.0398 478.58 46.392C476.909 45.7557 475.58 44.8864 474.591 43.7841C473.602 42.6818 472.96 41.4432 472.665 40.0682L479.381 39.1648C479.585 39.6875 479.909 40.1761 480.352 40.6307C480.795 41.0852 481.381 41.4489 482.108 41.7216C482.847 42.0057 483.744 42.1477 484.801 42.1477C486.381 42.1477 487.682 41.7614 488.705 40.9886C489.739 40.2273 490.256 38.9489 490.256 37.1534V32.3636H489.949C489.631 33.0909 489.153 33.7784 488.517 34.4261C487.881 35.0739 487.062 35.6023 486.062 36.0114C485.062 36.4205 483.869 36.625 482.483 36.625C480.517 36.625 478.727 36.1705 477.114 35.2614C475.511 34.3409 474.233 32.9375 473.278 31.0511C472.335 29.1534 471.864 26.7557 471.864 23.858C471.864 20.892 472.347 18.4148 473.312 16.4261C474.278 14.4375 475.563 12.9489 477.165 11.9602C478.778 10.9716 480.545 10.4773 482.466 10.4773C483.932 10.4773 485.159 10.7273 486.148 11.2273C487.136 11.7159 487.932 12.3295 488.534 13.0682C489.148 13.7955 489.619 14.5114 489.949 15.2159H490.222V10.8182H497.432V37.2557C497.432 39.483 496.886 41.3466 495.795 42.8466C494.705 44.3466 493.193 45.4716 491.261 46.2216C489.341 46.983 487.131 47.3636 484.631 47.3636ZM484.784 31.1705C485.955 31.1705 486.943 30.8807 487.75 30.3011C488.568 29.7102 489.193 28.8693 489.625 27.7784C490.068 26.6761 490.29 25.358 490.29 23.8239C490.29 22.2898 490.074 20.9602 489.642 19.8352C489.21 18.6989 488.585 17.8182 487.767 17.1932C486.949 16.5682 485.955 16.2557 484.784 16.2557C483.591 16.2557 482.585 16.5795 481.767 17.2273C480.949 17.8636 480.33 18.75 479.909 19.8864C479.489 21.0227 479.278 22.3352 479.278 23.8239C479.278 25.3352 479.489 26.642 479.909 27.7443C480.341 28.8352 480.96 29.6818 481.767 30.2841C482.585 30.875 483.591 31.1705 484.784 31.1705Z" fill="#FFD52D"/>
<path d="M8.15909 2.09091H8.95909V1.29091H8.15909V2.09091ZM8.15909 37V37.8H8.95909V37H8.15909ZM0.897727 37H0.0977274V37.8H0.897727V37ZM0.897727 2.09091V1.29091H0.0977274V2.09091H0.897727ZM7.35909 2.09091V37H8.95909V2.09091H7.35909ZM8.15909 36.2H0.897727V37.8H8.15909V36.2ZM1.69773 37V2.09091H0.0977274V37H1.69773ZM0.897727 2.89091H8.15909V1.29091H0.897727V2.89091ZM18.9531 35.875L18.5566 36.5699L18.5615 36.5726L18.9531 35.875ZM14.4872 31.2045L13.7765 31.5719L13.7774 31.5735L14.4872 31.2045ZM14.4872 16.9375L13.7757 16.5718L13.7757 16.5718L14.4872 16.9375ZM18.902 12.1818L18.4928 11.4944L18.491 11.4955L18.902 12.1818ZM30.4418 11.3125L30.1615 12.0618L30.1684 12.0643L30.4418 11.3125ZM34.3622 13.7841L33.7994 14.3527L33.8023 14.3555L34.3622 13.7841ZM36.9872 17.9432L36.2379 18.2235L36.2386 18.2252L36.9872 17.9432ZM37.9247 25.767V26.567H38.7247V25.767H37.9247ZM15.8168 25.767H15.0168V26.567H15.8168V25.767ZM15.8168 21.267V20.467H15.0168V21.267H15.8168ZM31.0895 21.267V22.067H31.8895V21.267H31.0895ZM30.4077 18.4886L29.7107 18.8813L29.7107 18.8813L30.4077 18.4886ZM28.5156 16.5966L28.1112 17.287L28.123 17.2936L28.5156 16.5966ZM22.8054 16.6648L23.2143 17.3524L23.217 17.3508L22.8054 16.6648ZM20.8281 18.6932L21.5239 19.0881L21.5261 19.0841L20.8281 18.6932ZM20.0952 21.5057L19.2952 21.4969V21.5057H20.0952ZM20.8111 29.142L20.0972 29.5033L20.1007 29.51L20.8111 29.142ZM28.2429 31.75L27.9861 30.9923L27.9861 30.9923L28.2429 31.75ZM29.9645 30.7273L29.4128 30.148L29.4128 30.148L29.9645 30.7273ZM31.0554 29.0568L31.1081 28.2586L30.5174 28.2196L30.3074 28.7731L31.0554 29.0568ZM37.7713 29.5L38.554 29.6654L38.7448 28.7625L37.824 28.7017L37.7713 29.5ZM35.6747 33.7273L35.0734 33.1997L35.073 33.2001L35.6747 33.7273ZM31.6179 36.5227L31.915 37.2655L31.9176 37.2645L31.6179 36.5227ZM25.9077 36.7114C23.3232 36.7114 21.1457 36.1885 19.3448 35.1774L18.5615 36.5726C20.6469 37.7433 23.1058 38.3114 25.9077 38.3114V36.7114ZM19.3496 35.1802C17.5541 34.1557 16.173 32.7132 15.1971 30.8356L13.7774 31.5735C14.8923 33.7186 16.4885 35.3898 18.5567 36.5698L19.3496 35.1802ZM15.1979 30.8372C14.2223 28.9497 13.719 26.6888 13.719 24.0284H12.119C12.119 26.8907 12.6612 29.4139 13.7765 31.5719L15.1979 30.8372ZM13.719 24.0284C13.719 21.4399 14.2209 19.2057 15.1987 17.3032L13.7757 16.5718C12.6626 18.7375 12.119 21.2306 12.119 24.0284H13.719ZM15.1987 17.3032C16.1784 15.3972 17.5479 13.9251 19.313 12.8682L18.491 11.4955C16.4606 12.7113 14.887 14.4096 13.7757 16.5718L15.1987 17.3032ZM19.3112 12.8693C21.0783 11.8174 23.171 11.2773 25.6179 11.2773V9.67727C22.9285 9.67727 20.5439 10.2735 18.4928 11.4944L19.3112 12.8693ZM25.6179 11.2773C27.2578 11.2773 28.77 11.5413 30.1615 12.0618L30.722 10.5632C29.1363 9.97006 27.4326 9.67727 25.6179 9.67727V11.2773ZM30.1684 12.0643C31.5619 12.5711 32.7695 13.3332 33.7994 14.3527L34.925 13.2155C33.7277 12.0304 32.3216 11.1448 30.7152 10.5607L30.1684 12.0643ZM33.8023 14.3555C34.8332 15.3656 35.6485 16.6482 36.2379 18.2235L37.7365 17.6628C37.0759 15.8972 36.1412 14.4072 34.9221 13.2127L33.8023 14.3555ZM36.2386 18.2252C36.8222 19.7744 37.1247 21.6181 37.1247 23.7727H38.7247C38.7247 21.4728 38.4023 19.4302 37.7359 17.6612L36.2386 18.2252ZM37.1247 23.7727V25.767H38.7247V23.7727H37.1247ZM37.9247 24.967H15.8168V26.567H37.9247V24.967ZM16.6168 25.767V21.267H15.0168V25.767H16.6168ZM15.8168 22.067H31.0895V20.467H15.8168V22.067ZM31.8895 21.267C31.8895 20.1021 31.6351 19.0374 31.1047 18.096L29.7107 18.8813C30.0894 19.5535 30.2895 20.3411 30.2895 21.267H31.8895ZM31.1047 18.096C30.5784 17.1618 29.8425 16.4259 28.9083 15.8996L28.123 17.2936C28.8024 17.6764 29.3279 18.2018 29.7107 18.8813L31.1047 18.096ZM28.9199 15.9063C27.9848 15.3586 26.915 15.0977 25.7372 15.0977V16.6977C26.6731 16.6977 27.4555 16.9028 28.1113 17.2869L28.9199 15.9063ZM25.7372 15.0977C24.5062 15.0977 23.3836 15.3849 22.3938 15.9788L23.217 17.3508C23.9317 16.9219 24.7637 16.6977 25.7372 16.6977V15.0977ZM22.3965 15.9771C21.4351 16.5488 20.6762 17.3272 20.1301 18.3023L21.5261 19.0841C21.9346 18.3546 22.4939 17.7807 23.2143 17.3524L22.3965 15.9771ZM20.1324 18.2983C19.5836 19.2652 19.308 20.3371 19.2952 21.4969L20.8951 21.5145C20.9051 20.6061 21.1181 19.803 21.5239 19.0881L20.1324 18.2983ZM19.2952 21.5057V25.7841H20.8952V21.5057H19.2952ZM19.2952 25.7841C19.2952 27.1772 19.552 28.4256 20.0973 29.5033L21.5249 28.7808C21.1156 27.9721 20.8952 26.9819 20.8952 25.7841H19.2952ZM20.1007 29.51C20.6569 30.5836 21.4498 31.426 22.4738 32.0168L23.2734 30.6309C22.5247 30.199 21.9425 29.5869 21.5214 28.774L20.1007 29.51ZM22.4738 32.0168C23.5028 32.6105 24.6973 32.8909 26.027 32.8909V31.2909C24.9249 31.2909 24.0171 31.06 23.2734 30.6309L22.4738 32.0168ZM26.027 32.8909C26.9091 32.8909 27.7359 32.7666 28.4997 32.5077L27.9861 30.9923C27.409 31.188 26.7585 31.2909 26.027 31.2909V32.8909ZM28.4997 32.5077C29.272 32.2459 29.9486 31.8471 30.5162 31.3066L29.4128 30.148C29.0258 30.5165 28.5547 30.7996 27.9861 30.9923L28.4997 32.5077ZM30.5162 31.3066C31.0862 30.7638 31.5139 30.1037 31.8034 29.3405L30.3074 28.7731C30.0969 29.3282 29.7974 29.7817 29.4128 30.148L30.5162 31.3066ZM31.0027 29.8551L37.7186 30.2983L37.824 28.7017L31.1081 28.2586L31.0027 29.8551ZM36.9886 29.3346C36.6752 30.8181 36.0369 32.1014 35.0734 33.1997L36.2761 34.2549C37.4261 32.944 38.1856 31.4092 38.554 29.6654L36.9886 29.3346ZM35.073 33.2001C34.1201 34.2877 32.8762 35.1514 31.3182 35.781L31.9176 37.2645C33.6778 36.5532 35.1385 35.5533 36.2764 34.2545L35.073 33.2001ZM31.3208 35.7799C29.7856 36.394 27.9864 36.7114 25.9077 36.7114V38.3114C28.1471 38.3114 30.1547 37.9696 31.915 37.2655L31.3208 35.7799ZM66.3693 10.8182L67.1245 11.0822L67.4965 10.0182H66.3693V10.8182ZM57.2159 37V37.8H57.7837L57.9711 37.264L57.2159 37ZM49.0341 37L48.2789 37.264L48.4663 37.8H49.0341V37ZM39.8807 10.8182V10.0182H38.7535L39.1255 11.0822L39.8807 10.8182ZM47.5511 10.8182L48.3194 10.5952L48.1519 10.0182H47.5511V10.8182ZM52.9886 29.5511L52.2203 29.7741L52.3878 30.3511H52.9886V29.5511ZM53.2614 29.5511V30.3511H53.8627L54.0298 29.7735L53.2614 29.5511ZM58.6818 10.8182V10.0182H58.0805L57.9133 10.5958L58.6818 10.8182ZM65.6141 10.5542L56.4607 36.736L57.9711 37.264L67.1245 11.0822L65.6141 10.5542ZM57.2159 36.2H49.0341V37.8H57.2159V36.2ZM49.7893 36.736L40.6359 10.5542L39.1255 11.0822L48.2789 37.264L49.7893 36.736ZM39.8807 11.6182H47.5511V10.0182H39.8807V11.6182ZM46.7828 11.0412L52.2203 29.7741L53.7569 29.3281L48.3194 10.5952L46.7828 11.0412ZM52.9886 30.3511H53.2614V28.7511H52.9886V30.3511ZM54.0298 29.7735L59.4503 11.0405L57.9133 10.5958L52.4929 29.3288L54.0298 29.7735ZM58.6818 11.6182H66.3693V10.0182H58.6818V11.6182ZM74.2188 35.875L73.8223 36.5699L73.8271 36.5726L74.2188 35.875ZM69.7528 31.2045L69.0422 31.5719L69.043 31.5735L69.7528 31.2045ZM69.7528 16.9375L69.0413 16.5718L69.0413 16.5718L69.7528 16.9375ZM74.1676 12.1818L73.7584 11.4944L73.7566 11.4955L74.1676 12.1818ZM85.7074 11.3125L85.4271 12.0618L85.434 12.0643L85.7074 11.3125ZM89.6278 13.7841L89.0651 14.3527L89.068 14.3555L89.6278 13.7841ZM92.2528 17.9432L91.5036 18.2235L91.5042 18.2252L92.2528 17.9432ZM93.1903 25.767V26.567H93.9903V25.767H93.1903ZM71.0824 25.767H70.2824V26.567H71.0824V25.767ZM71.0824 21.267V20.467H70.2824V21.267H71.0824ZM86.3551 21.267V22.067H87.1551V21.267H86.3551ZM85.6733 18.4886L84.9763 18.8813L84.9763 18.8813L85.6733 18.4886ZM83.7812 16.5966L83.3769 17.287L83.3886 17.2936L83.7812 16.5966ZM78.071 16.6648L78.4799 17.3524L78.4826 17.3508L78.071 16.6648ZM76.0938 18.6932L76.7895 19.0881L76.7918 19.0841L76.0938 18.6932ZM75.3608 21.5057L74.5608 21.4969V21.5057H75.3608ZM76.0767 29.142L75.3629 29.5033L75.3664 29.51L76.0767 29.142ZM83.5085 31.75L83.2517 30.9923L83.2517 30.9923L83.5085 31.75ZM85.2301 30.7273L84.6784 30.148L84.6784 30.148L85.2301 30.7273ZM86.321 29.0568L86.3737 28.2586L85.783 28.2196L85.573 28.7731L86.321 29.0568ZM93.0369 29.5L93.8197 29.6654L94.0104 28.7625L93.0896 28.7017L93.0369 29.5ZM90.9403 33.7273L90.339 33.1997L90.3386 33.2001L90.9403 33.7273ZM86.8835 36.5227L87.1806 37.2655L87.1833 37.2645L86.8835 36.5227ZM81.1733 36.7114C78.5888 36.7114 76.4113 36.1885 74.6104 35.1774L73.8271 36.5726C75.9125 37.7433 78.3715 38.3114 81.1733 38.3114V36.7114ZM74.6152 35.1802C72.8197 34.1557 71.4386 32.7132 70.4627 30.8356L69.043 31.5735C70.158 33.7186 71.7542 35.3898 73.8223 36.5698L74.6152 35.1802ZM70.4635 30.8372C69.488 28.9497 68.9847 26.6888 68.9847 24.0284H67.3847C67.3847 26.8907 67.9268 29.4139 69.0422 31.5719L70.4635 30.8372ZM68.9847 24.0284C68.9847 21.4399 69.4865 19.2057 70.4644 17.3032L69.0413 16.5718C67.9282 18.7375 67.3847 21.2306 67.3847 24.0284H68.9847ZM70.4644 17.3032C71.444 15.3972 72.8135 13.9251 74.5786 12.8682L73.7566 11.4955C71.7262 12.7113 70.1526 14.4096 69.0413 16.5718L70.4644 17.3032ZM74.5768 12.8693C76.3439 11.8174 78.4366 11.2773 80.8835 11.2773V9.67727C78.1941 9.67727 75.8095 10.2735 73.7584 11.4944L74.5768 12.8693ZM80.8835 11.2773C82.5234 11.2773 84.0356 11.5413 85.4271 12.0618L85.9877 10.5632C84.4019 9.97006 82.6982 9.67727 80.8835 9.67727V11.2773ZM85.434 12.0643C86.8275 12.5711 88.0351 13.3332 89.0651 14.3527L90.1906 13.2155C88.9933 12.0304 87.5873 11.1448 85.9808 10.5607L85.434 12.0643ZM89.068 14.3555C90.0988 15.3656 90.9142 16.6482 91.5036 18.2235L93.0021 17.6628C92.3415 15.8972 91.4068 14.4072 90.1877 13.2127L89.068 14.3555ZM91.5042 18.2252C92.0878 19.7744 92.3903 21.6181 92.3903 23.7727H93.9903C93.9903 21.4728 93.6679 19.4302 93.0015 17.6612L91.5042 18.2252ZM92.3903 23.7727V25.767H93.9903V23.7727H92.3903ZM93.1903 24.967H71.0824V26.567H93.1903V24.967ZM71.8824 25.767V21.267H70.2824V25.767H71.8824ZM71.0824 22.067H86.3551V20.467H71.0824V22.067ZM87.1551 21.267C87.1551 20.1021 86.9007 19.0374 86.3703 18.096L84.9763 18.8813C85.355 19.5535 85.5551 20.3411 85.5551 21.267H87.1551ZM86.3703 18.096C85.844 17.1618 85.1081 16.4259 84.1739 15.8996L83.3886 17.2936C84.0681 17.6764 84.5935 18.2018 84.9763 18.8813L86.3703 18.096ZM84.1856 15.9063C83.2504 15.3586 82.1806 15.0977 81.0028 15.0977V16.6977C81.9387 16.6977 82.7212 16.9028 83.3769 17.2869L84.1856 15.9063ZM81.0028 15.0977C79.7718 15.0977 78.6493 15.3849 77.6594 15.9788L78.4826 17.3508C79.1973 16.9219 80.0293 16.6977 81.0028 16.6977V15.0977ZM77.6622 15.9771C76.7007 16.5488 75.9418 17.3272 75.3957 18.3023L76.7918 19.0841C77.2003 18.3546 77.7595 17.7807 78.4799 17.3524L77.6622 15.9771ZM75.398 18.2983C74.8492 19.2652 74.5736 20.3371 74.5608 21.4969L76.1607 21.5145C76.1707 20.6061 76.3837 19.803 76.7895 19.0881L75.398 18.2983ZM74.5608 21.5057V25.7841H76.1608V21.5057H74.5608ZM74.5608 25.7841C74.5608 27.1772 74.8176 28.4256 75.3629 29.5033L76.7905 28.7808C76.3813 27.9721 76.1608 26.9819 76.1608 25.7841H74.5608ZM75.3664 29.51C75.9225 30.5836 76.7154 31.426 77.7394 32.0168L78.539 30.6309C77.7903 30.199 77.2082 29.5869 76.787 28.774L75.3664 29.51ZM77.7394 32.0168C78.7684 32.6105 79.9629 32.8909 81.2926 32.8909V31.2909C80.1905 31.2909 79.2827 31.06 78.539 30.6309L77.7394 32.0168ZM81.2926 32.8909C82.1748 32.8909 83.0015 32.7666 83.7654 32.5077L83.2517 30.9923C82.6746 31.188 82.0241 31.2909 81.2926 31.2909V32.8909ZM83.7654 32.5077C84.5376 32.2459 85.2143 31.8471 85.7818 31.3066L84.6784 30.148C84.2914 30.5165 83.8204 30.7996 83.2517 30.9923L83.7654 32.5077ZM85.7818 31.3066C86.3518 30.7638 86.7796 30.1037 87.069 29.3405L85.573 28.7731C85.3625 29.3282 85.063 29.7817 84.6784 30.148L85.7818 31.3066ZM86.2683 29.8551L92.9843 30.2983L93.0896 28.7017L86.3737 28.2586L86.2683 29.8551ZM92.2542 29.3346C91.9408 30.8181 91.3025 32.1014 90.339 33.1997L91.5417 34.2549C92.6918 32.944 93.4512 31.4092 93.8197 29.6654L92.2542 29.3346ZM90.3386 33.2001C89.3857 34.2877 88.1418 35.1514 86.5838 35.781L87.1833 37.2645C88.9434 36.5532 90.4041 35.5533 91.542 34.2545L90.3386 33.2001ZM86.5864 35.7799C85.0512 36.394 83.2521 36.7114 81.1733 36.7114V38.3114C83.4127 38.3114 85.4204 37.9696 87.1806 37.2655L86.5864 35.7799ZM105.19 2.09091H105.99V1.29091H105.19V2.09091ZM105.19 37V37.8H105.99V37H105.19ZM97.929 37H97.129V37.8H97.929V37ZM97.929 2.09091V1.29091H97.129V2.09091H97.929ZM104.39 2.09091V37H105.99V2.09091H104.39ZM105.19 36.2H97.929V37.8H105.19V36.2ZM98.729 37V2.09091H97.129V37H98.729ZM97.929 2.89091H105.19V1.29091H97.929V2.89091ZM138.906 25.8523H138.106L138.106 25.86L138.906 25.8523ZM138.906 10.8182V10.0182H138.106V10.8182H138.906ZM146.168 10.8182H146.968V10.0182H146.168V10.8182ZM146.168 37V37.8H146.968V37H146.168ZM139.196 37H138.396V37.8H139.196V37ZM139.196 32.2443H139.996V31.4443H139.196V32.2443ZM138.923 32.2443V31.4443H138.374L138.177 31.9568L138.923 32.2443ZM135.974 35.9432L135.526 35.2809L135.523 35.2827L135.974 35.9432ZM126.361 36.1477L126.772 35.4612L126.772 35.4612L126.361 36.1477ZM123.241 32.7557L122.527 33.1157L122.529 33.1201L123.241 32.7557ZM122.116 27.4886L121.316 27.4886L121.316 27.4931L122.116 27.4886ZM122.116 10.8182V10.0182H121.316V10.8182H122.116ZM129.378 10.8182H130.178V10.0182H129.378V10.8182ZM129.378 26.1932L128.578 26.1932L128.578 26.1991L129.378 26.1932ZM130.622 29.858L131.213 29.3191L131.213 29.3191L130.622 29.858ZM136.366 30.608L136.737 31.3171L136.745 31.3127L136.366 30.608ZM138.207 28.8011L137.521 28.3895L137.517 28.3968L138.207 28.8011ZM139.706 25.8523V10.8182H138.106V25.8523H139.706ZM138.906 11.6182H146.168V10.0182H138.906V11.6182ZM145.368 10.8182V37H146.968V10.8182H145.368ZM146.168 36.2H139.196V37.8H146.168V36.2ZM139.996 37V32.2443H138.396V37H139.996ZM139.196 31.4443H138.923V33.0443H139.196V31.4443ZM138.177 31.9568C137.645 33.3368 136.767 34.4397 135.526 35.2809L136.423 36.6054C137.932 35.583 139.02 34.22 139.67 32.5319L138.177 31.9568ZM135.523 35.2827C134.316 36.1074 132.816 36.5409 130.98 36.5409V38.1409C133.076 38.1409 134.906 37.6426 136.426 36.6037L135.523 35.2827ZM130.98 36.5409C129.356 36.5409 127.961 36.1731 126.772 35.4612L125.95 36.8342C127.419 37.7132 129.105 38.1409 130.98 38.1409V36.5409ZM126.772 35.4612C125.579 34.7477 124.64 33.7325 123.954 32.3913L122.529 33.1201C123.343 34.7107 124.484 35.9569 125.95 36.8342L126.772 35.4612ZM123.956 32.3957C123.285 31.0639 122.927 29.4358 122.916 27.4842L121.316 27.4931C121.328 29.6323 121.721 31.5157 122.527 33.1157L123.956 32.3957ZM122.916 27.4886V10.8182H121.316V27.4886H122.916ZM122.116 11.6182H129.378V10.0182H122.116V11.6182ZM128.578 10.8182V26.1932H130.178V10.8182H128.578ZM128.578 26.1991C128.59 27.8863 129.047 29.3169 130.031 30.3968L131.213 29.3191C130.561 28.6036 130.188 27.591 130.178 26.1873L128.578 26.1991ZM130.031 30.3968C131.021 31.4837 132.345 32.0045 133.912 32.0045V30.4045C132.729 30.4045 131.859 30.0276 131.213 29.3191L130.031 30.3968ZM133.912 32.0045C134.913 32.0045 135.859 31.7756 136.737 31.317L135.996 29.8989C135.351 30.2357 134.66 30.4045 133.912 30.4045V32.0045ZM136.745 31.3127C137.645 30.8293 138.363 30.119 138.898 29.2055L137.517 28.3968C137.12 29.0742 136.611 29.5684 135.988 29.9032L136.745 31.3127ZM138.893 29.2127C139.464 28.2615 139.719 27.1243 139.706 25.8445L138.106 25.86C138.117 26.9211 137.905 27.7499 137.521 28.3895L138.893 29.2127ZM151.976 46.8182H151.176V47.6182H151.976V46.8182ZM151.976 10.8182V10.0182H151.176V10.8182H151.976ZM159.135 10.8182H159.935V10.0182H159.135V10.8182ZM159.135 15.2159H158.335V16.0159H159.135V15.2159ZM159.459 15.2159V16.0159H159.975L160.188 15.5452L159.459 15.2159ZM160.839 13.0682L160.224 12.557L160.223 12.5579L160.839 13.0682ZM163.226 11.2273L163.584 11.9428L163.587 11.9412L163.226 11.2273ZM172.192 11.9773L171.77 12.6573L171.774 12.6594L172.192 11.9773ZM176.061 16.4602L175.341 16.8081L175.341 16.8098L176.061 16.4602ZM176.095 31.3409L175.371 31.0013L175.37 31.0031L176.095 31.3409ZM172.277 35.892L172.707 36.5664L172.709 36.5656L172.277 35.892ZM163.294 36.7273L162.95 37.4494L162.953 37.4509L163.294 36.7273ZM160.891 34.9716L160.288 35.4977L160.292 35.5025L160.891 34.9716ZM159.459 32.8068L160.187 32.4766L159.975 32.0068H159.459V32.8068ZM159.237 32.8068V32.0068H158.437V32.8068H159.237ZM159.237 46.8182V47.6182H160.037V46.8182H159.237ZM161.607 30.6932L161.11 31.3204L161.115 31.3247L161.607 30.6932ZM167.589 30.6761L168.086 31.3034L168.091 31.2991L167.589 30.6761ZM169.447 27.9489L168.697 27.672L168.695 27.6761L169.447 27.9489ZM169.464 19.9205L170.216 19.6453L170.216 19.6453L169.464 19.9205ZM167.607 17.2273L168.103 16.6L168.103 16.6L167.607 17.2273ZM161.589 17.1932L161.104 16.5574L161.1 16.5607L161.589 17.1932ZM159.732 19.8523L158.983 19.5706L158.983 19.5706L159.732 19.8523ZM152.776 46.8182V10.8182H151.176V46.8182H152.776ZM151.976 11.6182H159.135V10.0182H151.976V11.6182ZM158.335 10.8182V15.2159H159.935V10.8182H158.335ZM159.135 16.0159H159.459V14.4159H159.135V16.0159ZM160.188 15.5452C160.471 14.9182 160.889 14.2624 161.456 13.5784L160.223 12.5579C159.585 13.3285 159.083 14.1045 158.73 14.8866L160.188 15.5452ZM161.455 13.5794C161.989 12.937 162.692 12.3887 163.584 11.9428L162.868 10.5117C161.805 11.0431 160.918 11.7221 160.224 12.557L161.455 13.5794ZM163.587 11.9412C164.433 11.513 165.528 11.2773 166.908 11.2773V9.67727C165.355 9.67727 163.996 9.9415 162.865 10.5134L163.587 11.9412ZM166.908 11.2773C168.669 11.2773 170.284 11.7362 171.77 12.6573L172.613 11.2973C170.872 10.2184 168.965 9.67727 166.908 9.67727V11.2773ZM171.774 12.6594C173.235 13.5549 174.43 14.9218 175.341 16.8081L176.781 16.1123C175.761 13.9986 174.375 12.377 172.61 11.2951L171.774 12.6594ZM175.341 16.8098C176.239 18.6578 176.71 21.0233 176.71 23.9432H178.31C178.31 20.8631 177.815 18.2399 176.781 16.1107L175.341 16.8098ZM176.71 23.9432C176.71 26.7816 176.251 29.1241 175.371 31.0013L176.819 31.6806C177.826 29.535 178.31 26.9457 178.31 23.9432H176.71ZM175.37 31.0031C174.492 32.8869 173.313 34.278 171.845 35.2185L172.709 36.5656C174.468 35.4379 175.834 33.795 176.82 31.6788L175.37 31.0031ZM171.847 35.2177C170.379 36.1545 168.734 36.6261 166.891 36.6261V38.2261C169.024 38.2261 170.97 37.6751 172.707 36.5664L171.847 35.2177ZM166.891 36.6261C165.567 36.6261 164.491 36.4069 163.635 36.0036L162.953 37.4509C164.074 37.9795 165.396 38.2261 166.891 38.2261V36.6261ZM163.638 36.0051C162.743 35.5785 162.033 35.054 161.489 34.4407L160.292 35.5025C160.998 36.2982 161.89 36.9442 162.95 37.4494L163.638 36.0051ZM161.493 34.4455C160.91 33.7775 160.479 33.1208 160.187 32.4766L158.73 33.137C159.097 33.9474 159.621 34.7338 160.288 35.4977L161.493 34.4455ZM159.459 32.0068H159.237V33.6068H159.459V32.0068ZM158.437 32.8068V46.8182H160.037V32.8068H158.437ZM159.237 46.0182H151.976V47.6182H159.237V46.0182ZM158.284 23.9091C158.284 25.5376 158.509 26.994 158.982 28.2622L160.481 27.7037C160.09 26.6537 159.884 25.3942 159.884 23.9091H158.284ZM158.982 28.2622C159.455 29.5326 160.158 30.5664 161.11 31.3204L162.103 30.0659C161.419 29.5245 160.872 28.7514 160.481 27.7037L158.982 28.2622ZM161.115 31.3247C162.092 32.0842 163.265 32.4477 164.589 32.4477V30.8477C163.573 30.8477 162.757 30.5749 162.098 30.0617L161.115 31.3247ZM164.589 32.4477C165.926 32.4477 167.108 32.0777 168.086 31.3034L167.093 30.0489C166.435 30.5701 165.616 30.8477 164.589 30.8477V32.4477ZM168.091 31.2991C169.042 30.5335 169.738 29.494 170.199 28.2217L168.695 27.6761C168.316 28.7219 167.774 29.5006 167.088 30.0531L168.091 31.2991ZM170.198 28.2258C170.669 26.9495 170.895 25.5061 170.895 23.9091H169.295C169.295 25.3575 169.09 26.6073 168.697 27.672L170.198 28.2258ZM170.895 23.9091C170.895 22.3252 170.675 20.8992 170.216 19.6453L168.713 20.1956C169.095 21.2371 169.295 22.4702 169.295 23.9091H170.895ZM170.216 19.6453C169.753 18.383 169.056 17.3541 168.103 16.6L167.11 17.8545C167.794 18.3959 168.335 19.1624 168.713 20.1956L170.216 19.6453ZM168.103 16.6C167.124 15.8247 165.936 15.4557 164.589 15.4557V17.0557C165.63 17.0557 166.453 17.3344 167.11 17.8545L168.103 16.6ZM164.589 15.4557C163.259 15.4557 162.082 15.8105 161.104 16.5574L162.075 17.8289C162.734 17.3258 163.556 17.0557 164.589 17.0557V15.4557ZM161.1 16.5607C160.154 17.2932 159.456 18.3123 158.983 19.5706L160.48 20.134C160.871 19.0968 161.411 18.3431 162.079 17.8256L161.1 16.5607ZM158.983 19.5706C158.509 20.829 158.284 22.2809 158.284 23.9091H159.884C159.884 22.4237 160.09 21.171 160.48 20.134L158.983 19.5706ZM195.352 46.5966L195.496 45.8096L195.487 45.8081L195.352 46.5966ZM193.375 46.0682L192.609 45.837L192.4 46.5309L193.07 46.8076L193.375 46.0682ZM195.011 40.6477L195.246 39.8829L194.478 39.6473L194.246 40.4165L195.011 40.6477ZM197.312 41.0739L197.286 41.8734L197.286 41.8734L197.312 41.0739ZM199.102 40.5966L198.658 39.9309L198.652 39.9356L199.102 40.5966ZM200.347 38.858L201.092 39.1479L201.093 39.1451L200.347 38.858ZM200.773 37.75L201.519 38.0372L201.625 37.7635L201.528 37.4866L200.773 37.75ZM191.381 10.8182V10.0182H190.254L190.625 11.0816L191.381 10.8182ZM199.017 10.8182L199.787 10.6011L199.623 10.0182H199.017V10.8182ZM204.438 30.0455L203.668 30.2625L203.832 30.8455H204.438V30.0455ZM204.71 30.0455V30.8455H205.314L205.48 30.2644L204.71 30.0455ZM210.182 10.8182V10.0182H209.578L209.412 10.5992L210.182 10.8182ZM217.869 10.8182L218.624 11.083L218.998 10.0182H217.869V10.8182ZM207.693 39.8295L206.938 39.5647L206.937 39.5674L207.693 39.8295ZM205.699 43.5114L205.075 43.0099L205.07 43.0174L205.699 43.5114ZM202.545 45.9489L202.219 45.2183L202.214 45.2208L202.545 45.9489ZM197.943 46.0182C197.065 46.0182 196.25 45.9477 195.496 45.8097L195.208 47.3835C196.068 47.5409 196.98 47.6182 197.943 47.6182V46.0182ZM195.487 45.8081C194.728 45.6779 194.131 45.5147 193.68 45.3288L193.07 46.8076C193.665 47.0534 194.386 47.2426 195.217 47.3851L195.487 45.8081ZM194.141 46.2994L195.777 40.8789L194.246 40.4165L192.609 45.837L194.141 46.2994ZM194.777 41.4126C195.677 41.6887 196.516 41.8478 197.286 41.8734L197.339 40.2743C196.746 40.2545 196.05 40.1295 195.246 39.8829L194.777 41.4126ZM197.286 41.8734C198.123 41.9009 198.893 41.7077 199.553 41.2576L198.652 39.9356C198.312 40.1673 197.888 40.2923 197.339 40.2743L197.286 41.8734ZM199.546 41.2622C200.241 40.7986 200.739 40.0563 201.092 39.1479L199.601 38.568C199.318 39.296 198.986 39.7127 198.659 39.931L199.546 41.2622ZM201.093 39.1451L201.519 38.0372L200.026 37.4628L199.6 38.5708L201.093 39.1451ZM201.528 37.4866L192.136 10.5548L190.625 11.0816L200.017 38.0134L201.528 37.4866ZM191.381 11.6182H199.017V10.0182H191.381V11.6182ZM198.247 11.0353L203.668 30.2625L205.207 29.8284L199.787 10.6011L198.247 11.0353ZM204.438 30.8455H204.71V29.2455H204.438V30.8455ZM205.48 30.2644L210.951 11.0371L209.412 10.5992L203.941 29.8265L205.48 30.2644ZM210.182 11.6182H217.869V10.0182H210.182V11.6182ZM217.114 10.5534L206.938 39.5648L208.448 40.0943L218.624 11.083L217.114 10.5534ZM206.937 39.5674C206.475 40.8994 205.853 42.0436 205.075 43.01L206.322 44.0128C207.227 42.8882 207.934 41.5779 208.449 40.0917L206.937 39.5674ZM205.07 43.0174C204.323 43.968 203.378 44.7011 202.219 45.2184L202.872 46.6794C204.258 46.0602 205.415 45.1684 206.328 44.0053L205.07 43.0174ZM202.214 45.2208C201.07 45.7415 199.656 46.0182 197.943 46.0182V47.6182C199.822 47.6182 201.475 47.3153 202.877 46.6769L202.214 45.2208ZM225.702 35.8239L225.294 36.5124L225.299 36.5152L225.702 35.8239ZM221.253 31.0852L220.541 31.4509L220.542 31.4525L221.253 31.0852ZM221.253 16.9205L221.964 17.2878L221.964 17.2862L221.253 16.9205ZM225.702 12.1818L226.106 12.8721L226.107 12.8714L225.702 12.1818ZM239.423 12.1818L239.016 12.8703L239.021 12.8731L239.423 12.1818ZM243.889 16.9205L243.178 17.2862L243.179 17.2878L243.889 16.9205ZM243.889 31.0852L244.6 31.4525L244.601 31.4509L243.889 31.0852ZM239.423 35.8239L239.828 36.5141L239.829 36.5134L239.423 35.8239ZM235.622 30.8636L236.139 31.4747L236.143 31.4704L235.622 30.8636ZM237.446 28.0341L236.691 27.7682L236.689 27.7746L237.446 28.0341ZM237.446 19.8864L236.689 20.1458L236.691 20.1522L237.446 19.8864ZM229.537 17.0568L229.024 16.4429L229.02 16.4464L229.537 17.0568ZM227.679 19.8864L226.924 19.6205L226.922 19.6269L227.679 19.8864ZM227.679 28.0341L226.922 28.2936L226.924 28.3L227.679 28.0341ZM229.537 30.8636L229.02 31.4741L229.029 31.4817L229.537 30.8636ZM232.571 36.7114C230.039 36.7114 227.893 36.1742 226.104 35.1325L225.299 36.5152C227.374 37.7235 229.808 38.3114 232.571 38.3114V36.7114ZM226.109 35.1354C224.321 34.0771 222.942 32.6101 221.964 30.7179L220.542 31.4525C221.655 33.6058 223.242 35.2979 225.294 36.5124L226.109 35.1354ZM221.964 30.7195C220.986 28.8166 220.485 26.5879 220.485 24.0114H218.885C218.885 26.7985 219.428 29.2857 220.541 31.4509L221.964 30.7195ZM220.485 24.0114C220.485 21.4107 220.987 19.1775 221.964 17.2878L220.542 16.5531C219.428 18.7089 218.885 21.2029 218.885 24.0114H220.485ZM221.964 17.2862C222.942 15.3833 224.321 13.9181 226.106 12.8721L225.297 11.4915C223.242 12.6956 221.654 14.3894 220.541 16.5548L221.964 17.2862ZM226.107 12.8714C227.896 11.8195 230.04 11.2773 232.571 11.2773V9.67727C229.807 9.67727 227.372 10.2714 225.296 11.4923L226.107 12.8714ZM232.571 11.2773C235.102 11.2773 237.24 11.8195 239.016 12.8703L239.831 11.4933C237.766 10.2714 235.335 9.67727 232.571 9.67727V11.2773ZM239.021 12.8731C240.817 13.9194 242.2 15.3845 243.178 17.2862L244.601 16.5548C243.487 14.3882 241.893 12.6942 239.826 11.4905L239.021 12.8731ZM243.179 17.2878C244.155 19.1775 244.657 21.4107 244.657 24.0114H246.257C246.257 21.2029 245.714 18.7089 244.6 16.5531L243.179 17.2878ZM244.657 24.0114C244.657 26.5879 244.156 28.8166 243.178 30.7195L244.601 31.4509C245.714 29.2857 246.257 26.7985 246.257 24.0114H244.657ZM243.179 30.7179C242.201 32.6089 240.817 34.0757 239.018 35.1343L239.829 36.5134C241.893 35.2993 243.486 33.607 244.6 31.4525L243.179 30.7179ZM239.019 35.1336C237.243 36.1742 235.104 36.7114 232.571 36.7114V38.3114C235.334 38.3114 237.763 37.7235 239.828 36.5141L239.019 35.1336ZM232.605 32.6864C233.971 32.6864 235.167 32.2955 236.139 31.4747L235.106 30.2526C234.463 30.7954 233.649 31.0864 232.605 31.0864V32.6864ZM236.143 31.4704C237.077 30.6686 237.756 29.5962 238.203 28.2935L236.689 27.7746C236.318 28.8583 235.781 29.6724 235.101 30.2568L236.143 31.4704ZM238.201 28.3C238.657 27.006 238.877 25.5556 238.877 23.9602H237.277C237.277 25.4103 237.076 26.6758 236.691 27.7682L238.201 28.3ZM238.877 23.9602C238.877 22.3648 238.657 20.9145 238.201 19.6205L236.691 20.1522C237.076 21.2446 237.277 22.5102 237.277 23.9602H238.877ZM238.203 19.6269C237.756 18.3242 237.077 17.2519 236.143 16.45L235.101 17.6636C235.781 18.2481 236.318 19.0621 236.689 20.1458L238.203 19.6269ZM236.143 16.45C235.172 15.6157 233.974 15.217 232.605 15.217V16.817C233.645 16.817 234.458 17.1116 235.101 17.6636L236.143 16.45ZM232.605 15.217C231.227 15.217 230.015 15.6145 229.024 16.4429L230.05 17.6707C230.718 17.1128 231.552 16.817 232.605 16.817V15.217ZM229.02 16.4464C228.075 17.2467 227.384 18.3177 226.924 19.6205L228.434 20.1522C228.815 19.0687 229.362 18.2533 230.054 17.6672L229.02 16.4464ZM226.922 19.6269C226.479 20.9188 226.265 22.3669 226.265 23.9602H227.865C227.865 22.5081 228.061 21.2402 228.436 20.1458L226.922 19.6269ZM226.265 23.9602C226.265 25.5535 226.479 27.0016 226.922 28.2935L228.436 27.7746C228.061 26.6802 227.865 25.4124 227.865 23.9602H226.265ZM226.924 28.3C227.384 29.6028 228.075 30.6738 229.02 31.474L230.054 30.2532C229.362 29.6671 228.815 28.8518 228.434 27.7682L226.924 28.3ZM229.029 31.4817C230.021 32.2966 231.23 32.6864 232.605 32.6864V31.0864C231.549 31.0864 230.712 30.7943 230.045 30.2456L229.029 31.4817ZM266.969 25.8523H266.169L266.169 25.86L266.969 25.8523ZM266.969 10.8182V10.0182H266.169V10.8182H266.969ZM274.23 10.8182H275.03V10.0182H274.23V10.8182ZM274.23 37V37.8H275.03V37H274.23ZM267.259 37H266.459V37.8H267.259V37ZM267.259 32.2443H268.059V31.4443H267.259V32.2443ZM266.986 32.2443V31.4443H266.437L266.239 31.9568L266.986 32.2443ZM264.037 35.9432L263.588 35.2809L263.586 35.2827L264.037 35.9432ZM254.423 36.1477L254.834 35.4612L254.834 35.4612L254.423 36.1477ZM251.304 32.7557L250.59 33.1157L250.592 33.1201L251.304 32.7557ZM250.179 27.4886L249.379 27.4886L249.379 27.4931L250.179 27.4886ZM250.179 10.8182V10.0182H249.379V10.8182H250.179ZM257.44 10.8182H258.24V10.0182H257.44V10.8182ZM257.44 26.1932L256.64 26.1932L256.64 26.1991L257.44 26.1932ZM258.685 29.858L259.276 29.3191L259.276 29.3191L258.685 29.858ZM264.429 30.608L264.799 31.3171L264.808 31.3127L264.429 30.608ZM266.27 28.8011L265.584 28.3895L265.58 28.3968L266.27 28.8011ZM267.769 25.8523V10.8182H266.169V25.8523H267.769ZM266.969 11.6182H274.23V10.0182H266.969V11.6182ZM273.43 10.8182V37H275.03V10.8182H273.43ZM274.23 36.2H267.259V37.8H274.23V36.2ZM268.059 37V32.2443H266.459V37H268.059ZM267.259 31.4443H266.986V33.0443H267.259V31.4443ZM266.239 31.9568C265.708 33.3368 264.829 34.4397 263.588 35.2809L264.486 36.6054C265.994 35.583 267.082 34.22 267.732 32.5319L266.239 31.9568ZM263.586 35.2827C262.379 36.1074 260.879 36.5409 259.043 36.5409V38.1409C261.138 38.1409 262.968 37.6426 264.488 36.6037L263.586 35.2827ZM259.043 36.5409C257.418 36.5409 256.024 36.1731 254.834 35.4612L254.013 36.8342C255.482 37.7132 257.167 38.1409 259.043 38.1409V36.5409ZM254.834 35.4612C253.641 34.7477 252.702 33.7325 252.016 32.3913L250.592 33.1201C251.406 34.7107 252.546 35.9569 254.013 36.8342L254.834 35.4612ZM252.018 32.3957C251.347 31.0639 250.99 29.4358 250.979 27.4842L249.379 27.4931C249.391 29.6323 249.783 31.5157 250.59 33.1157L252.018 32.3957ZM250.979 27.4886V10.8182H249.379V27.4886H250.979ZM250.179 11.6182H257.44V10.0182H250.179V11.6182ZM256.64 10.8182V26.1932H258.24V10.8182H256.64ZM256.64 26.1991C256.653 27.8863 257.109 29.3169 258.093 30.3968L259.276 29.3191C258.624 28.6036 258.251 27.591 258.24 26.1873L256.64 26.1991ZM258.093 30.3968C259.084 31.4837 260.407 32.0045 261.974 32.0045V30.4045C260.792 30.4045 259.922 30.0276 259.276 29.3191L258.093 30.3968ZM261.974 32.0045C262.976 32.0045 263.921 31.7756 264.799 31.317L264.059 29.8989C263.414 30.2357 262.723 30.4045 261.974 30.4045V32.0045ZM264.808 31.3127C265.707 30.8293 266.425 30.119 266.96 29.2055L265.58 28.3968C265.183 29.0742 264.673 29.5684 264.05 29.9032L264.808 31.3127ZM266.956 29.2127C267.527 28.2615 267.781 27.1243 267.769 25.8445L266.169 25.86C266.179 26.9211 265.968 27.7499 265.584 28.3895L266.956 29.2127ZM280.038 37H279.238V37.8H280.038V37ZM280.038 10.8182V10.0182H279.238V10.8182H280.038ZM287.078 10.8182H287.878V10.0182H287.078V10.8182ZM287.078 15.3864H286.278V16.1864H287.078V15.3864ZM287.351 15.3864V16.1864H287.95L288.118 15.6118L287.351 15.3864ZM289.754 11.7045L290.229 12.3484L290.233 12.3453L289.754 11.7045ZM294.817 10.5114L294.903 9.716L294.903 9.716L294.817 10.5114ZM295.925 10.6989H296.725V10.0742L296.119 9.92275L295.925 10.6989ZM295.925 17.142L295.695 17.9083L296.725 18.2173V17.142H295.925ZM289.993 17.4489L290.377 18.1505L290.381 18.1486L289.993 17.4489ZM288.016 19.358L287.329 18.9477L287.325 18.9549L288.016 19.358ZM287.3 37V37.8H288.1V37H287.3ZM280.838 37V10.8182H279.238V37H280.838ZM280.038 11.6182H287.078V10.0182H280.038V11.6182ZM286.278 10.8182V15.3864H287.878V10.8182H286.278ZM287.078 16.1864H287.351V14.5864H287.078V16.1864ZM288.118 15.6118C288.557 14.1181 289.273 13.0537 290.229 12.3484L289.279 11.0607C287.986 12.0144 287.099 13.4047 286.583 15.1609L288.118 15.6118ZM290.233 12.3453C291.214 11.6125 292.339 11.2432 293.641 11.2432V9.64318C292.01 9.64318 290.545 10.1148 289.275 11.0638L290.233 12.3453ZM293.641 11.2432C293.971 11.2432 294.334 11.2639 294.731 11.3067L294.903 9.716C294.458 9.66794 294.037 9.64318 293.641 9.64318V11.2432ZM294.731 11.3067C295.125 11.3493 295.456 11.4064 295.731 11.475L296.119 9.92275C295.757 9.83221 295.35 9.76433 294.903 9.716L294.731 11.3067ZM295.125 10.6989V17.142H296.725V10.6989H295.125ZM296.155 16.3758C295.754 16.2556 295.234 16.158 294.615 16.0762L294.405 17.6624C294.99 17.7397 295.414 17.8239 295.695 17.9083L296.155 16.3758ZM294.615 16.0762C293.985 15.993 293.398 15.95 292.857 15.95V17.55C293.315 17.55 293.831 17.5865 294.405 17.6624L294.615 16.0762ZM292.857 15.95C291.668 15.95 290.578 16.2104 289.605 16.7491L290.381 18.1486C291.09 17.7555 291.909 17.55 292.857 17.55V15.95ZM289.608 16.7473C288.653 17.2708 287.89 18.0082 287.329 18.9478L288.702 19.7681C289.119 19.0713 289.674 18.536 290.377 18.1504L289.608 16.7473ZM287.325 18.9549C286.767 19.9104 286.5 20.9961 286.5 22.1875H288.1C288.1 21.2425 288.31 20.4419 288.707 19.7611L287.325 18.9549ZM286.5 22.1875V37H288.1V22.1875H286.5ZM287.3 36.2H280.038V37.8H287.3V36.2ZM318.05 2.09091H318.85V1.29091H318.05V2.09091ZM318.05 37V37.8H318.85V37H318.05ZM310.788 37H309.988V37.8H310.788V37ZM310.788 2.09091V1.29091H309.988V2.09091H310.788ZM317.25 2.09091V37H318.85V2.09091H317.25ZM318.05 36.2H310.788V37.8H318.05V36.2ZM311.588 37V2.09091H309.988V37H311.588ZM310.788 2.89091H318.05V1.29091H310.788V2.89091ZM328.844 35.875L328.447 36.5699L328.452 36.5726L328.844 35.875ZM324.378 31.2045L323.667 31.5719L323.668 31.5735L324.378 31.2045ZM324.378 16.9375L323.666 16.5718L323.666 16.5718L324.378 16.9375ZM328.793 12.1818L328.383 11.4944L328.382 11.4955L328.793 12.1818ZM340.332 11.3125L340.052 12.0618L340.059 12.0643L340.332 11.3125ZM344.253 13.7841L343.69 14.3527L343.693 14.3555L344.253 13.7841ZM346.878 17.9432L346.129 18.2235L346.129 18.2252L346.878 17.9432ZM347.815 25.767V26.567H348.615V25.767H347.815ZM325.707 25.767H324.907V26.567H325.707V25.767ZM325.707 21.267V20.467H324.907V21.267H325.707ZM340.98 21.267V22.067H341.78V21.267H340.98ZM340.298 18.4886L339.601 18.8813L339.601 18.8813L340.298 18.4886ZM338.406 16.5966L338.002 17.287L338.014 17.2936L338.406 16.5966ZM332.696 16.6648L333.105 17.3524L333.108 17.3508L332.696 16.6648ZM330.719 18.6932L331.415 19.0881L331.417 19.0841L330.719 18.6932ZM329.986 21.5057L329.186 21.4969V21.5057H329.986ZM330.702 29.142L329.988 29.5033L329.991 29.51L330.702 29.142ZM338.134 31.75L337.877 30.9923L337.877 30.9923L338.134 31.75ZM339.855 30.7273L339.303 30.148L339.303 30.148L339.855 30.7273ZM340.946 29.0568L340.999 28.2586L340.408 28.2196L340.198 28.7731L340.946 29.0568ZM347.662 29.5L348.445 29.6654L348.635 28.7625L347.715 28.7017L347.662 29.5ZM345.565 33.7273L344.964 33.1997L344.964 33.2001L345.565 33.7273ZM341.509 36.5227L341.806 37.2655L341.808 37.2645L341.509 36.5227ZM335.798 36.7114C333.214 36.7114 331.036 36.1885 329.235 35.1774L328.452 36.5726C330.538 37.7433 332.996 38.3114 335.798 38.3114V36.7114ZM329.24 35.1802C327.445 34.1557 326.064 32.7132 325.088 30.8356L323.668 31.5735C324.783 33.7186 326.379 35.3898 328.447 36.5698L329.24 35.1802ZM325.089 30.8372C324.113 28.9497 323.61 26.6888 323.61 24.0284H322.01C322.01 26.8907 322.552 29.4139 323.667 31.5719L325.089 30.8372ZM323.61 24.0284C323.61 21.4399 324.112 19.2057 325.089 17.3032L323.666 16.5718C322.553 18.7375 322.01 21.2306 322.01 24.0284H323.61ZM325.089 17.3032C326.069 15.3972 327.439 13.9251 329.204 12.8682L328.382 11.4955C326.351 12.7113 324.778 14.4096 323.666 16.5718L325.089 17.3032ZM329.202 12.8693C330.969 11.8174 333.062 11.2773 335.509 11.2773V9.67727C332.819 9.67727 330.435 10.2735 328.383 11.4944L329.202 12.8693ZM335.509 11.2773C337.148 11.2773 338.661 11.5413 340.052 12.0618L340.613 10.5632C339.027 9.97006 337.323 9.67727 335.509 9.67727V11.2773ZM340.059 12.0643C341.453 12.5711 342.66 13.3332 343.69 14.3527L344.816 13.2155C343.618 12.0304 342.212 11.1448 340.606 10.5607L340.059 12.0643ZM343.693 14.3555C344.724 15.3656 345.539 16.6482 346.129 18.2235L347.627 17.6628C346.967 15.8972 346.032 14.4072 344.813 13.2127L343.693 14.3555ZM346.129 18.2252C346.713 19.7744 347.015 21.6181 347.015 23.7727H348.615C348.615 21.4728 348.293 19.4302 347.626 17.6612L346.129 18.2252ZM347.015 23.7727V25.767H348.615V23.7727H347.015ZM347.815 24.967H325.707V26.567H347.815V24.967ZM326.507 25.767V21.267H324.907V25.767H326.507ZM325.707 22.067H340.98V20.467H325.707V22.067ZM341.78 21.267C341.78 20.1021 341.526 19.0374 340.995 18.096L339.601 18.8813C339.98 19.5535 340.18 20.3411 340.18 21.267H341.78ZM340.995 18.096C340.469 17.1618 339.733 16.4259 338.799 15.8996L338.014 17.2936C338.693 17.6764 339.218 18.2018 339.601 18.8813L340.995 18.096ZM338.811 15.9063C337.875 15.3586 336.806 15.0977 335.628 15.0977V16.6977C336.564 16.6977 337.346 16.9028 338.002 17.2869L338.811 15.9063ZM335.628 15.0977C334.397 15.0977 333.274 15.3849 332.284 15.9788L333.108 17.3508C333.822 16.9219 334.654 16.6977 335.628 16.6977V15.0977ZM332.287 15.9771C331.326 16.5488 330.567 17.3272 330.021 18.3023L331.417 19.0841C331.825 18.3546 332.385 17.7807 333.105 17.3524L332.287 15.9771ZM330.023 18.2983C329.474 19.2652 329.199 20.3371 329.186 21.4969L330.786 21.5145C330.796 20.6061 331.009 19.803 331.414 19.0881L330.023 18.2983ZM329.186 21.5057V25.7841H330.786V21.5057H329.186ZM329.186 25.7841C329.186 27.1772 329.443 28.4256 329.988 29.5033L331.416 28.7808C331.006 27.9721 330.786 26.9819 330.786 25.7841H329.186ZM329.991 29.51C330.548 30.5836 331.34 31.426 332.364 32.0168L333.164 30.6309C332.415 30.199 331.833 29.5869 331.412 28.774L329.991 29.51ZM332.364 32.0168C333.393 32.6105 334.588 32.8909 335.918 32.8909V31.2909C334.816 31.2909 333.908 31.06 333.164 30.6309L332.364 32.0168ZM335.918 32.8909C336.8 32.8909 337.627 32.7666 338.39 32.5077L337.877 30.9923C337.3 31.188 336.649 31.2909 335.918 31.2909V32.8909ZM338.39 32.5077C339.163 32.2459 339.839 31.8471 340.407 31.3066L339.303 30.148C338.916 30.5165 338.445 30.7996 337.877 30.9923L338.39 32.5077ZM340.407 31.3066C340.977 30.7638 341.405 30.1037 341.694 29.3405L340.198 28.7731C339.987 29.3282 339.688 29.7817 339.303 30.148L340.407 31.3066ZM340.893 29.8551L347.609 30.2983L347.715 28.7017L340.999 28.2586L340.893 29.8551ZM346.879 29.3346C346.566 30.8181 345.928 32.1014 344.964 33.1997L346.167 34.2549C347.317 32.944 348.076 31.4092 348.445 29.6654L346.879 29.3346ZM344.964 33.2001C344.011 34.2877 342.767 35.1514 341.209 35.781L341.808 37.2645C343.568 36.5532 345.029 35.5533 346.167 34.2545L344.964 33.2001ZM341.211 35.7799C339.676 36.394 337.877 36.7114 335.798 36.7114V38.3114C338.038 38.3114 340.045 37.9696 341.806 37.2655L341.211 35.7799ZM355.554 36.625L355.224 37.354L355.23 37.3563L355.554 36.625ZM352.452 34.017L351.78 34.4517L351.785 34.4593L352.452 34.017ZM352.128 26.0227L351.424 25.6425L351.424 25.6425L352.128 26.0227ZM354.31 23.6364L353.872 22.9669L353.872 22.9669L354.31 23.6364ZM357.446 22.2727L357.245 21.4984L357.243 21.4989L357.446 22.2727ZM361.162 21.625L361.239 22.4213L361.245 22.4207L361.162 21.625ZM364.844 21.1818L364.96 21.9734L364.969 21.9719L364.844 21.1818ZM366.872 20.5341L366.424 19.8712L366.424 19.8712L366.872 20.5341ZM366.48 16.6648L365.951 17.265L365.956 17.2693L366.48 16.6648ZM360.497 16.6477L360.971 17.2923L360.977 17.2877L360.497 16.6477ZM358.963 18.7955L358.898 19.5928L359.55 19.6457L359.732 19.0179L358.963 18.7955ZM352.247 18.25L351.465 18.0824L351.274 18.9736L352.182 19.0474L352.247 18.25ZM354.259 14.125L354.864 14.6476L354.867 14.6447L354.259 14.125ZM358.128 11.4318L358.422 12.1757L358.425 12.1746L358.128 11.4318ZM367.827 10.9886L367.628 11.7636L367.63 11.764L367.827 10.9886ZM371.389 12.5739L370.934 13.2316L370.937 13.2339L371.389 12.5739ZM373.861 15.3352L373.155 15.7128L373.157 15.7158L373.861 15.3352ZM374.764 37V37.8H375.564V37H374.764ZM367.878 37H367.078V37.8H367.878V37ZM367.878 33.3693H368.678V32.5693H367.878V33.3693ZM367.673 33.3693V32.5693H367.185L366.962 33.0037L367.673 33.3693ZM365.986 35.5341L366.511 36.1374L366.517 36.1326L365.986 35.5341ZM363.446 36.983L363.707 37.7393L363.715 37.7365L363.446 36.983ZM364.929 31.8523L365.295 32.5639L365.302 32.5598L364.929 31.8523ZM366.855 30.1136L366.181 29.6821L366.181 29.6821L366.855 30.1136ZM367.554 24.8636H368.354V23.3895L367.118 24.1929L367.554 24.8636ZM366.616 25.2727L366.842 26.0402L366.849 26.0381L366.856 26.0359L366.616 25.2727ZM365.304 25.5966L365.45 26.3831L365.459 26.3815L365.468 26.3796L365.304 25.5966ZM363.838 25.8523L363.949 26.6446L363.958 26.6433L363.967 26.6419L363.838 25.8523ZM362.509 26.0398L362.395 25.2478L362.392 25.2482L362.509 26.0398ZM360.276 26.6364L360.591 27.3717L360.591 27.3717L360.276 26.6364ZM358.793 27.7443L359.425 28.2344L359.431 28.2268L358.793 27.7443ZM359.338 31.7159L358.866 32.362L358.872 32.3662L358.878 32.3703L359.338 31.7159ZM360.02 36.6943C358.443 36.6943 357.067 36.421 355.878 35.8937L355.23 37.3563C356.654 37.9881 358.256 38.2943 360.02 38.2943V36.6943ZM355.884 35.8961C354.708 35.3644 353.793 34.5918 353.118 33.5748L351.785 34.4593C352.633 35.7377 353.786 36.7037 355.224 37.3539L355.884 35.8961ZM353.123 33.5824C352.476 32.5819 352.127 31.2992 352.127 29.6875H350.527C350.527 31.5303 350.927 33.1341 351.78 34.4516L353.123 33.5824ZM352.127 29.6875C352.127 28.3277 352.377 27.2454 352.832 26.403L351.424 25.6425C350.811 26.7773 350.527 28.1382 350.527 29.6875H352.127ZM352.832 26.403C353.304 25.5287 353.941 24.8336 354.748 24.3058L353.872 22.9669C352.837 23.6436 352.02 24.5395 351.424 25.6425L352.832 26.403ZM354.748 24.3058C355.589 23.7553 356.554 23.3337 357.649 23.0466L357.243 21.4989C355.998 21.8254 354.871 22.3129 353.872 22.9669L354.748 24.3058ZM357.647 23.0471C358.786 22.7515 359.982 22.5425 361.239 22.4213L361.085 20.8287C359.75 20.9575 358.47 21.1803 357.245 21.4984L357.647 23.0471ZM361.245 22.4207C362.773 22.261 364.012 22.112 364.96 21.9734L364.728 20.3902C363.812 20.5244 362.596 20.6708 361.079 20.8293L361.245 22.4207ZM364.969 21.9719C365.934 21.819 366.751 21.5812 367.32 21.197L366.424 19.8712C366.152 20.0552 365.617 20.2492 364.718 20.3917L364.969 21.9719ZM367.32 21.197C367.985 20.7478 368.303 20.0648 368.303 19.2727H366.703C366.703 19.5943 366.6 19.7522 366.424 19.8712L367.32 21.197ZM368.303 19.2727V19.1705H366.703V19.2727H368.303ZM368.303 19.1705C368.303 17.9089 367.896 16.833 367.004 16.0602L365.956 17.2693C366.428 17.6783 366.703 18.2729 366.703 19.1705H368.303ZM367.009 16.0646C366.145 15.3026 364.975 14.9784 363.616 14.9784V16.5784C364.736 16.5784 365.475 16.8451 365.951 17.2649L367.009 16.0646ZM363.616 14.9784C362.197 14.9784 360.97 15.2932 360.017 16.0077L360.977 17.2877C361.57 16.8432 362.422 16.5784 363.616 16.5784V14.9784ZM360.023 16.0032C359.119 16.6684 358.497 17.5284 358.195 18.573L359.732 19.0179C359.929 18.3352 360.33 17.7635 360.971 17.2922L360.023 16.0032ZM359.028 17.9981L352.312 17.4526L352.182 19.0474L358.898 19.5928L359.028 17.9981ZM353.029 18.4176C353.344 16.9495 353.957 15.6986 354.864 14.6476L353.653 13.6024C352.56 14.8695 351.832 16.3687 351.465 18.0824L353.029 18.4176ZM354.867 14.6447C355.773 13.5834 356.951 12.7577 358.422 12.1757L357.833 10.6879C356.145 11.3559 354.744 12.3257 353.65 13.6053L354.867 14.6447ZM358.425 12.1746C359.903 11.5834 361.64 11.2773 363.651 11.2773V9.67727C361.48 9.67727 359.534 10.0075 357.831 10.689L358.425 12.1746ZM363.651 11.2773C365.042 11.2773 366.367 11.4403 367.628 11.7636L368.025 10.2137C366.627 9.85519 365.168 9.67727 363.651 9.67727V11.2773ZM367.63 11.764C368.887 12.0837 369.986 12.5751 370.934 13.2316L371.845 11.9161C370.725 11.1408 369.448 10.5754 368.024 10.2133L367.63 11.764ZM370.937 13.2339C371.876 13.8768 372.613 14.7001 373.156 15.7128L374.566 14.9576C373.904 13.7204 372.993 12.7027 371.841 11.9138L370.937 13.2339ZM373.157 15.7158C373.683 16.6886 373.964 17.8868 373.964 19.3409H375.564C375.564 17.6814 375.243 16.2091 374.564 14.9547L373.157 15.7158ZM373.964 19.3409V37H375.564V19.3409H373.964ZM374.764 36.2H367.878V37.8H374.764V36.2ZM368.678 37V33.3693H367.078V37H368.678ZM367.878 32.5693H367.673V34.1693H367.878V32.5693ZM366.962 33.0037C366.588 33.7316 366.087 34.3748 365.455 34.9356L366.517 36.1326C367.294 35.4434 367.918 34.6434 368.385 33.735L366.962 33.0037ZM365.46 34.9308C364.84 35.4711 364.083 35.9066 363.178 36.2294L363.715 37.7365C364.786 37.3548 365.722 36.8243 366.511 36.1374L365.46 34.9308ZM363.185 36.2267C362.298 36.5327 361.247 36.6943 360.02 36.6943V38.2943C361.384 38.2943 362.617 38.1151 363.707 37.7393L363.185 36.2267ZM362.099 33.283C363.274 33.283 364.346 33.0511 365.295 32.5638L364.563 31.1407C363.875 31.4943 363.061 31.683 362.099 31.683V33.283ZM365.302 32.5598C366.234 32.0682 366.983 31.3971 367.529 30.5452L366.181 29.6821C365.795 30.2847 365.261 30.7727 364.556 31.1448L365.302 32.5598ZM367.529 30.5452C368.083 29.6805 368.354 28.705 368.354 27.642H366.754C366.754 28.42 366.559 29.0922 366.181 29.6821L367.529 30.5452ZM368.354 27.642V24.8636H366.754V27.642H368.354ZM367.118 24.1929C366.975 24.2858 366.738 24.396 366.377 24.5095L366.856 26.0359C367.29 25.8995 367.678 25.7369 367.99 25.5344L367.118 24.1929ZM366.391 24.5052C366.029 24.6117 365.613 24.7147 365.14 24.8136L365.468 26.3796C365.973 26.274 366.431 26.1611 366.842 26.0402L366.391 24.5052ZM365.158 24.8101C364.675 24.8999 364.192 24.9841 363.71 25.0627L363.967 26.6419C364.461 26.5614 364.956 26.4751 365.45 26.3831L365.158 24.8101ZM363.728 25.0599C363.238 25.1282 362.794 25.1908 362.395 25.2478L362.622 26.8317C363.018 26.7751 363.461 26.7127 363.949 26.6446L363.728 25.0599ZM362.392 25.2482C361.488 25.381 360.674 25.5954 359.96 25.901L360.591 27.3717C361.15 27.1319 361.825 26.9486 362.625 26.8313L362.392 25.2482ZM359.96 25.901C359.22 26.2184 358.605 26.6661 358.154 27.2618L359.431 28.2268C359.685 27.8908 360.058 27.5998 360.591 27.3717L359.96 25.901ZM358.16 27.2543C357.68 27.8738 357.464 28.6238 357.464 29.4489H359.064C359.064 28.9103 359.201 28.5239 359.425 28.2344L358.16 27.2543ZM357.464 29.4489C357.464 30.6589 357.918 31.6697 358.866 32.362L359.81 31.0698C359.326 30.7167 359.064 30.2161 359.064 29.4489H357.464ZM358.878 32.3703C359.771 32.998 360.863 33.283 362.099 33.283V31.683C361.109 31.683 360.36 31.4566 359.798 31.0615L358.878 32.3703ZM380.398 37H379.598V37.8H380.398V37ZM380.398 10.8182V10.0182H379.598V10.8182H380.398ZM387.438 10.8182H388.238V10.0182H387.438V10.8182ZM387.438 15.3864H386.637V16.1864H387.438V15.3864ZM387.71 15.3864V16.1864H388.309L388.478 15.6118L387.71 15.3864ZM390.114 11.7045L390.588 12.3484L390.593 12.3453L390.114 11.7045ZM395.176 10.5114L395.262 9.716L395.262 9.716L395.176 10.5114ZM396.284 10.6989H397.084V10.0742L396.478 9.92275L396.284 10.6989ZM396.284 17.142L396.054 17.9083L397.084 18.2173V17.142H396.284ZM390.352 17.4489L390.737 18.1505L390.74 18.1486L390.352 17.4489ZM388.375 19.358L387.688 18.9477L387.684 18.9549L388.375 19.358ZM387.659 37V37.8H388.459V37H387.659ZM381.198 37V10.8182H379.598V37H381.198ZM380.398 11.6182H387.438V10.0182H380.398V11.6182ZM386.637 10.8182V15.3864H388.238V10.8182H386.637ZM387.438 16.1864H387.71V14.5864H387.438V16.1864ZM388.478 15.6118C388.917 14.1181 389.632 13.0537 390.588 12.3484L389.639 11.0607C388.345 12.0144 387.458 13.4047 386.943 15.1609L388.478 15.6118ZM390.593 12.3453C391.573 11.6125 392.699 11.2432 394 11.2432V9.64318C392.37 9.64318 390.904 10.1148 389.635 11.0638L390.593 12.3453ZM394 11.2432C394.331 11.2432 394.694 11.2639 395.09 11.3067L395.262 9.716C394.818 9.66794 394.397 9.64318 394 9.64318V11.2432ZM395.09 11.3067C395.484 11.3493 395.816 11.4064 396.09 11.475L396.478 9.92275C396.116 9.83221 395.709 9.76433 395.262 9.716L395.09 11.3067ZM395.484 10.6989V17.142H397.084V10.6989H395.484ZM396.514 16.3758C396.113 16.2556 395.594 16.158 394.974 16.0762L394.765 17.6624C395.35 17.7397 395.773 17.8239 396.054 17.9083L396.514 16.3758ZM394.974 16.0762C394.344 15.993 393.757 15.95 393.216 15.95V17.55C393.674 17.55 394.19 17.5865 394.765 17.6624L394.974 16.0762ZM393.216 15.95C392.027 15.95 390.937 16.2104 389.965 16.7491L390.74 18.1486C391.449 17.7555 392.268 17.55 393.216 17.55V15.95ZM389.968 16.7473C389.012 17.2708 388.249 18.0082 387.688 18.9478L389.062 19.7681C389.478 19.0713 390.033 18.536 390.737 18.1504L389.968 16.7473ZM387.684 18.9549C387.127 19.9104 386.859 20.9961 386.859 22.1875H388.459C388.459 21.2425 388.669 20.4419 389.066 19.7611L387.684 18.9549ZM386.859 22.1875V37H388.459V22.1875H386.859ZM387.659 36.2H380.398V37.8H387.659V36.2ZM407.3 21.8636L406.5 21.8556V21.8636H407.3ZM407.3 37V37.8H408.1V37H407.3ZM400.038 37H399.238V37.8H400.038V37ZM400.038 10.8182V10.0182H399.238V10.8182H400.038ZM406.959 10.8182H407.759V10.0182H406.959V10.8182ZM406.959 15.4375H406.159V16.2375H406.959V15.4375ZM407.266 15.4375V16.2375H407.817L408.013 15.7221L407.266 15.4375ZM410.18 11.8239L410.616 12.4946L410.62 12.4921L410.18 11.8239ZM423.05 15.0795L422.336 15.4417L422.338 15.4439L423.05 15.0795ZM424.175 37V37.8H424.975V37H424.175ZM416.913 37H416.113V37.8H416.913V37ZM416.913 21.625L416.113 21.6193V21.625H416.913ZM415.686 17.875L415.095 18.4143L415.099 18.4179L415.686 17.875ZM409.669 17.142L409.278 16.4442L409.273 16.4468L409.669 17.142ZM407.93 18.983L407.221 18.6132L407.219 18.6171L407.93 18.983ZM406.5 21.8636V37H408.1V21.8636H406.5ZM407.3 36.2H400.038V37.8H407.3V36.2ZM400.838 37V10.8182H399.238V37H400.838ZM400.038 11.6182H406.959V10.0182H400.038V11.6182ZM406.159 10.8182V15.4375H407.759V10.8182H406.159ZM406.959 16.2375H407.266V14.6375H406.959V16.2375ZM408.013 15.7221C408.533 14.3575 409.395 13.2884 410.616 12.4946L409.744 11.1531C408.238 12.1321 407.158 13.472 406.518 15.1529L408.013 15.7221ZM410.62 12.4921C411.83 11.6956 413.324 11.2773 415.141 11.2773V9.67727C413.071 9.67727 411.258 10.1567 409.741 11.1557L410.62 12.4921ZM415.141 11.2773C416.839 11.2773 418.28 11.6477 419.491 12.36L420.302 10.9809C418.808 10.1023 417.078 9.67727 415.141 9.67727V11.2773ZM419.491 12.36C420.704 13.0735 421.652 14.0927 422.336 15.4417L423.763 14.7174C422.948 13.1118 421.793 11.8583 420.302 10.9809L419.491 12.36ZM422.338 15.4439C423.018 16.7736 423.375 18.3929 423.375 20.3295H424.975C424.975 18.198 424.582 16.3173 423.762 14.7152L422.338 15.4439ZM423.375 20.3295V37H424.975V20.3295H423.375ZM424.175 36.2H416.913V37.8H424.175V36.2ZM417.713 37V21.625H416.113V37H417.713ZM417.713 21.6307C417.726 19.8902 417.28 18.4208 416.274 17.3321L415.099 18.4179C415.752 19.1247 416.124 20.1552 416.113 21.6193L417.713 21.6307ZM416.277 17.3358C415.268 16.2302 413.895 15.7114 412.26 15.7114V17.3114C413.534 17.3114 414.445 17.7016 415.095 18.4142L416.277 17.3358ZM412.26 15.7114C411.165 15.7114 410.163 15.9481 409.278 16.4442L410.06 17.8399C410.675 17.4951 411.401 17.3114 412.26 17.3114V15.7114ZM409.273 16.4468C408.391 16.9488 407.707 17.6801 407.221 18.6132L408.64 19.3527C408.994 18.6722 409.469 18.1762 410.065 17.8373L409.273 16.4468ZM407.219 18.6171C406.74 19.5481 406.512 20.6373 406.5 21.8556L408.1 21.8717C408.11 20.8399 408.302 20.0087 408.642 19.3488L407.219 18.6171ZM429.898 37H429.098V37.8H429.898V37ZM429.898 10.8182V10.0182H429.098V10.8182H429.898ZM437.159 10.8182H437.959V10.0182H437.159V10.8182ZM437.159 37V37.8H437.959V37H437.159ZM430.767 6.36932L430.214 6.94787L430.223 6.95616L430.767 6.36932ZM430.767 1.1875L431.315 1.77032L431.315 1.77006L430.767 1.1875ZM436.307 1.1875L435.754 1.76606L435.763 1.77435L436.307 1.1875ZM436.307 6.36932L436.855 6.95213L436.855 6.95188L436.307 6.36932ZM430.698 37V10.8182H429.098V37H430.698ZM429.898 11.6182H437.159V10.0182H429.898V11.6182ZM436.359 10.8182V37H437.959V10.8182H436.359ZM437.159 36.2H429.898V37.8H437.159V36.2ZM433.545 6.64318C432.662 6.64318 431.932 6.35763 431.311 5.78247L430.223 6.95616C431.148 7.81282 432.27 8.24318 433.545 8.24318V6.64318ZM431.32 5.79083C430.709 5.20753 430.425 4.54431 430.425 3.76136H428.825C428.825 5.00114 429.302 6.07655 430.214 6.9478L431.32 5.79083ZM430.425 3.76136C430.425 2.99303 430.706 2.3427 431.315 1.77032L430.219 0.604684C429.305 1.46412 428.825 2.52969 428.825 3.76136H430.425ZM431.315 1.77006C431.937 1.18512 432.666 0.896589 433.545 0.896589V-0.703411C432.266 -0.703411 431.143 -0.264672 430.219 0.60494L431.315 1.77006ZM433.545 0.896589C434.425 0.896589 435.146 1.18484 435.754 1.76599L436.859 0.609012C435.945 -0.264388 434.825 -0.703411 433.545 -0.703411V0.896589ZM435.763 1.77435C436.382 2.34796 436.666 2.99718 436.666 3.76136H438.266C438.266 2.52555 437.777 1.45886 436.851 0.60065L435.763 1.77435ZM436.666 3.76136C436.666 4.54023 436.38 5.2023 435.759 5.78676L436.855 6.95188C437.78 6.08179 438.266 5.00522 438.266 3.76136H436.666ZM435.759 5.7865C435.151 6.35789 434.429 6.64318 433.545 6.64318V8.24318C434.821 8.24318 435.94 7.81256 436.855 6.95213L435.759 5.7865ZM450.237 21.8636L449.437 21.8556V21.8636H450.237ZM450.237 37V37.8H451.037V37H450.237ZM442.976 37H442.176V37.8H442.976V37ZM442.976 10.8182V10.0182H442.176V10.8182H442.976ZM449.896 10.8182H450.696V10.0182H449.896V10.8182ZM449.896 15.4375H449.096V16.2375H449.896V15.4375ZM450.203 15.4375V16.2375H450.755L450.951 15.7221L450.203 15.4375ZM453.118 11.8239L453.554 12.4946L453.558 12.4921L453.118 11.8239ZM465.987 15.0795L465.274 15.4417L465.275 15.4439L465.987 15.0795ZM467.112 37V37.8H467.912V37H467.112ZM459.851 37H459.051V37.8H459.851V37ZM459.851 21.625L459.051 21.6193V21.625H459.851ZM458.624 17.875L458.033 18.4143L458.036 18.4179L458.624 17.875ZM452.607 17.142L452.215 16.4442L452.211 16.4468L452.607 17.142ZM450.868 18.983L450.158 18.6132L450.156 18.6171L450.868 18.983ZM449.437 21.8636V37H451.037V21.8636H449.437ZM450.237 36.2H442.976V37.8H450.237V36.2ZM443.776 37V10.8182H442.176V37H443.776ZM442.976 11.6182H449.896V10.0182H442.976V11.6182ZM449.096 10.8182V15.4375H450.696V10.8182H449.096ZM449.896 16.2375H450.203V14.6375H449.896V16.2375ZM450.951 15.7221C451.47 14.3575 452.333 13.2884 453.554 12.4946L452.682 11.1531C451.176 12.1321 450.095 13.472 449.455 15.1529L450.951 15.7221ZM453.558 12.4921C454.768 11.6956 456.261 11.2773 458.078 11.2773V9.67727C456.009 9.67727 454.195 10.1567 452.678 11.1557L453.558 12.4921ZM458.078 11.2773C459.777 11.2773 461.217 11.6477 462.428 12.36L463.239 10.9809C461.746 10.1023 460.016 9.67727 458.078 9.67727V11.2773ZM462.428 12.36C463.641 13.0735 464.589 14.0927 465.274 15.4417L466.701 14.7174C465.885 13.1118 464.731 11.8583 463.239 10.9809L462.428 12.36ZM465.275 15.4439C465.955 16.7736 466.312 18.3929 466.312 20.3295H467.912C467.912 18.198 467.519 16.3173 466.699 14.7152L465.275 15.4439ZM466.312 20.3295V37H467.912V20.3295H466.312ZM467.112 36.2H459.851V37.8H467.112V36.2ZM460.651 37V21.625H459.051V37H460.651ZM460.651 21.6307C460.663 19.8902 460.217 18.4208 459.211 17.3321L458.036 18.4179C458.689 19.1247 459.061 20.1552 459.051 21.6193L460.651 21.6307ZM459.215 17.3358C458.206 16.2302 456.832 15.7114 455.197 15.7114V17.3114C456.472 17.3114 457.382 17.7016 458.033 18.4142L459.215 17.3358ZM455.197 15.7114C454.102 15.7114 453.1 15.9481 452.215 16.4442L452.998 17.8399C453.613 17.4951 454.338 17.3114 455.197 17.3114V15.7114ZM452.211 16.4468C451.329 16.9488 450.645 17.6801 450.158 18.6132L451.577 19.3527C451.932 18.6722 452.407 18.1762 453.002 17.8373L452.211 16.4468ZM450.156 18.6171C449.678 19.5481 449.45 20.6373 449.437 21.8556L451.037 21.8717C451.048 20.8399 451.24 20.0087 451.579 19.3488L450.156 18.6171ZM478.58 46.392L478.867 45.6455L478.864 45.6445L478.58 46.392ZM474.591 43.7841L473.995 44.3182L473.995 44.3182L474.591 43.7841ZM472.665 40.0682L472.558 39.2753L471.701 39.3906L471.883 40.2362L472.665 40.0682ZM479.381 39.1648L480.126 38.8733L479.897 38.2882L479.274 38.3719L479.381 39.1648ZM480.352 40.6307L480.925 40.0722L480.925 40.0722L480.352 40.6307ZM482.108 41.7216L482.395 40.9749L482.389 40.9725L482.108 41.7216ZM488.705 40.9886L488.23 40.3444L488.222 40.3503L488.705 40.9886ZM490.256 32.3636H491.056V31.5636H490.256V32.3636ZM489.949 32.3636V31.5636H489.426L489.216 32.043L489.949 32.3636ZM488.517 34.4261L489.088 34.9868L489.088 34.9868L488.517 34.4261ZM477.114 35.2614L476.715 35.9551L476.721 35.9584L477.114 35.2614ZM473.278 31.0511L472.562 31.4072L472.565 31.4123L473.278 31.0511ZM473.312 16.4261L472.593 16.0766L472.593 16.0766L473.312 16.4261ZM477.165 11.9602L476.747 11.2781L476.745 11.2794L477.165 11.9602ZM486.148 11.2273L485.787 11.9412L485.793 11.9445L486.148 11.2273ZM488.534 13.0682L487.914 13.5738L487.923 13.5841L488.534 13.0682ZM489.949 15.2159L489.224 15.5549L489.44 16.0159H489.949V15.2159ZM490.222 15.2159V16.0159H491.022V15.2159H490.222ZM490.222 10.8182V10.0182H489.422V10.8182H490.222ZM497.432 10.8182H498.232V10.0182H497.432V10.8182ZM495.795 42.8466L495.148 42.3761L495.148 42.3761L495.795 42.8466ZM491.261 46.2216L490.972 45.4758L490.967 45.4779L491.261 46.2216ZM487.75 30.3011L488.217 30.9509L488.218 30.9497L487.75 30.3011ZM489.625 27.7784L488.883 27.48L488.881 27.484L489.625 27.7784ZM489.642 19.8352L488.894 20.1194L488.895 20.1219L489.642 19.8352ZM481.767 17.2273L482.258 17.8588L482.264 17.8545L481.767 17.2273ZM479.909 19.8864L480.659 20.164L480.659 20.164L479.909 19.8864ZM479.909 27.7443L479.162 28.0295L479.165 28.0388L479.909 27.7443ZM481.767 30.2841L481.288 30.9253L481.299 30.9326L481.767 30.2841ZM484.631 46.5636C482.348 46.5636 480.434 46.2489 478.867 45.6455L478.292 47.1386C480.089 47.8306 482.209 48.1636 484.631 48.1636V46.5636ZM478.864 45.6445C477.289 45.0442 476.074 44.2396 475.186 43.2499L473.995 44.3182C475.085 45.5331 476.53 46.4672 478.295 47.1396L478.864 45.6445ZM475.186 43.2499C474.286 42.2457 473.712 41.1316 473.447 39.9001L471.883 40.2362C472.209 41.7547 472.919 43.118 473.995 44.3182L475.186 43.2499ZM472.771 40.861L479.487 39.9576L479.274 38.3719L472.558 39.2753L472.771 40.861ZM478.636 39.4563C478.884 40.0909 479.271 40.668 479.779 41.1892L480.925 40.0722C480.547 39.6842 480.286 39.2841 480.126 38.8733L478.636 39.4563ZM479.779 41.1892C480.321 41.7446 481.014 42.1657 481.827 42.4707L482.389 40.9725C481.748 40.7321 481.27 40.4259 480.925 40.0722L479.779 41.1892ZM481.821 42.4683C482.676 42.7972 483.677 42.9477 484.801 42.9477V41.3477C483.812 41.3477 483.017 41.2141 482.395 40.9749L481.821 42.4683ZM484.801 42.9477C486.513 42.9477 487.996 42.527 489.187 41.6269L488.222 40.3503C487.368 40.9957 486.248 41.3477 484.801 41.3477V42.9477ZM489.179 41.6329C490.492 40.6664 491.056 39.0949 491.056 37.1534H489.456C489.456 38.8028 488.986 39.7882 488.23 40.3444L489.179 41.6329ZM491.056 37.1534V32.3636H489.456V37.1534H491.056ZM490.256 31.5636H489.949V33.1636H490.256V31.5636ZM489.216 32.043C488.942 32.6692 488.524 33.2773 487.946 33.8655L489.088 34.9868C489.783 34.2795 490.319 33.5126 490.682 32.6843L489.216 32.043ZM487.946 33.8655C487.399 34.4225 486.678 34.8953 485.76 35.2709L486.365 36.7518C487.447 36.3093 488.362 35.7253 489.088 34.9868L487.946 33.8655ZM485.76 35.2709C484.879 35.6313 483.794 35.825 482.483 35.825V37.425C483.945 37.425 485.246 37.2096 486.365 36.7518L485.76 35.2709ZM482.483 35.825C480.646 35.825 478.993 35.4018 477.506 34.5644L476.721 35.9584C478.462 36.9391 480.388 37.425 482.483 37.425V35.825ZM477.512 34.5677C476.064 33.7357 474.887 32.4577 473.992 30.6899L472.565 31.4123C473.579 33.4173 474.959 34.9461 476.715 35.955L477.512 34.5677ZM473.995 30.6951C473.123 28.9409 472.664 26.6751 472.664 23.858H471.064C471.064 26.8362 471.547 29.3659 472.562 31.4072L473.995 30.6951ZM472.664 23.858C472.664 20.9738 473.134 18.6248 474.032 16.7757L472.593 16.0766C471.559 18.2048 471.064 20.8103 471.064 23.858H472.664ZM474.032 16.7757C474.943 14.8994 476.133 13.5369 477.585 12.6411L476.745 11.2794C474.992 12.3608 473.613 13.9756 472.593 16.0766L474.032 16.7757ZM477.583 12.6424C479.069 11.732 480.691 11.2773 482.466 11.2773V9.67727C480.4 9.67727 478.488 10.2112 476.747 11.2781L477.583 12.6424ZM482.466 11.2773C483.845 11.2773 484.94 11.513 485.787 11.9412L486.509 10.5134C485.378 9.9415 484.018 9.67727 482.466 9.67727V11.2773ZM485.793 11.9445C486.695 12.3903 487.395 12.9367 487.914 13.5737L489.154 12.5626C488.469 11.7224 487.577 11.0415 486.502 10.5101L485.793 11.9445ZM487.923 13.5841C488.501 14.2691 488.93 14.9263 489.224 15.5549L490.674 14.877C490.308 14.0964 489.795 13.3218 489.146 12.5523L487.923 13.5841ZM489.949 16.0159H490.222V14.4159H489.949V16.0159ZM491.022 15.2159V10.8182H489.422V15.2159H491.022ZM490.222 11.6182H497.432V10.0182H490.222V11.6182ZM496.632 10.8182V37.2557H498.232V10.8182H496.632ZM496.632 37.2557C496.632 39.3487 496.121 41.0385 495.148 42.3761L496.442 43.3171C497.651 41.6547 498.232 39.6172 498.232 37.2557H496.632ZM495.148 42.3761C494.158 43.7377 492.778 44.7746 490.972 45.4758L491.551 46.9674C493.608 46.1685 495.251 44.9555 496.442 43.3171L495.148 42.3761ZM490.967 45.4779C489.157 46.1951 487.05 46.5636 484.631 46.5636V48.1636C487.211 48.1636 489.524 47.7708 491.556 46.9653L490.967 45.4779ZM484.784 31.9705C486.091 31.9705 487.251 31.6446 488.217 30.9509L487.283 29.6514C486.635 30.1167 485.818 30.3705 484.784 30.3705V31.9705ZM488.218 30.9497C489.179 30.2557 489.89 29.2821 490.369 28.0728L488.881 27.484C488.496 28.4565 487.957 29.1648 487.282 29.6526L488.218 30.9497ZM490.367 28.0768C490.858 26.8565 491.09 25.4318 491.09 23.8239H489.49C489.49 25.2841 489.278 26.4958 488.883 27.48L490.367 28.0768ZM491.09 23.8239C491.09 22.2174 490.864 20.7862 490.389 19.5485L488.895 20.1219C489.284 21.1342 489.49 22.3622 489.49 23.8239H491.09ZM490.39 19.5511C489.915 18.3009 489.209 17.2882 488.253 16.5574L487.281 17.8289C487.961 18.3482 488.506 19.0969 488.894 20.1194L490.39 19.5511ZM488.253 16.5574C487.276 15.8116 486.105 15.4557 484.784 15.4557V17.0557C485.804 17.0557 486.621 17.3248 487.281 17.8289L488.253 16.5574ZM484.784 15.4557C483.438 15.4557 482.25 15.8247 481.27 16.6L482.264 17.8545C482.921 17.3344 483.744 17.0557 484.784 17.0557V15.4557ZM481.276 16.5958C480.321 17.3382 479.622 18.3566 479.159 19.6088L480.659 20.164C481.037 19.1434 481.576 18.3891 482.258 17.8588L481.276 16.5958ZM479.159 19.6088C478.699 20.8517 478.478 22.2614 478.478 23.8239H480.078C480.078 22.4091 480.278 21.1938 480.659 20.164L479.159 19.6088ZM478.478 23.8239C478.478 25.4065 478.698 26.8145 479.162 28.0294L480.657 27.4592C480.279 26.4696 480.078 25.2639 480.078 23.8239H478.478ZM479.165 28.0388C479.642 29.2444 480.344 30.2204 481.288 30.9252L482.246 29.643C481.576 29.1433 481.039 28.426 480.653 27.4499L479.165 28.0388ZM481.299 30.9326C482.277 31.639 483.454 31.9705 484.784 31.9705V30.3705C483.728 30.3705 482.894 30.111 482.235 29.6355L481.299 30.9326Z" fill="#2C2C2C" mask="url(#path-1-outside-1_83_79)"/>
</g>
<defs>
<filter id="filter0_d_83_79" x="0.897949" y="0.0965576" width="496.534" height="51.2671" filterUnits="userSpaceOnUse" color-interpolation-filters="sRGB">
<feFlood flood-opacity="0" result="BackgroundImageFix"/>
<feColorMatrix in="SourceAlpha" type="matrix" values="0 0 0 0 0 0 0 0 0 0 0 0 0 0 0 0 0 0 127 0" result="hardAlpha"/>
<feOffset dy="4"/>
<feComposite in2="hardAlpha" operator="out"/>
<feColorMatrix type="matrix" values="0 0 0 0 0.172549 0 0 0 0 0.172549 0 0 0 0 0.172549 0 0 0 1 0"/>
<feBlend mode="normal" in2="BackgroundImageFix" result="effect1_dropShadow_83_79"/>
<feBlend mode="normal" in="SourceGraphic" in2="effect1_dropShadow_83_79" result="shape"/>
</filter>
</defs>
</svg>
