<svg width="407" height="364" viewBox="0 0 407 364" fill="none" xmlns="http://www.w3.org/2000/svg">
<path fill-rule="evenodd" clip-rule="evenodd" d="M281.131 25.1165C281.131 25.1165 368.688 -31.3934 332.756 25.1165C296.823 81.6265 332.756 90.3402 332.756 90.3402C332.457 127.858 311.253 146.677 269.142 146.796C227.091 146.796 206.185 127.977 206.424 90.3402V25.1165H257.422L257.332 88.3719C257.332 98.3925 261.269 103.343 269.142 103.224C277.135 103.343 281.131 98.3925 281.131 88.3719V25.1165Z" fill="url(#paint0_linear_36_187)"/>
<path fill-rule="evenodd" clip-rule="evenodd" d="M125.869 25.1155C125.869 25.1155 38.3128 -31.3944 74.2449 25.1155C110.177 81.6255 74.2449 90.3392 74.2449 90.3392C74.5432 127.857 95.7476 146.676 137.858 146.795C179.909 146.795 200.815 127.976 200.577 90.3392V25.1155H149.579L149.668 88.3709C149.668 98.3916 145.732 103.342 137.858 103.223C129.866 103.342 125.869 98.3916 125.869 88.3709V25.1155Z" fill="url(#paint1_linear_36_187)"/>
<path d="M203.773 162.09L190.426 138.972L217.12 138.972L203.773 162.09Z" fill="#F26935"/>
<path d="M27.5547 228.524H15.9995C9.24415 228.524 3.73321 223.013 3.73321 216.258V210.392C3.73321 203.636 9.24415 198.125 15.9995 198.125H27.5547C34.31 198.125 39.8209 203.636 39.8209 210.392V216.258C39.8209 223.013 34.31 228.524 27.5547 228.524ZM39.8209 302.655C39.8209 306.211 36.7988 309.055 33.4212 309.055H10.133C6.57757 309.055 3.73321 306.211 3.73321 302.655C4.08876 279.901 5.51093 261.234 5.68871 238.657C5.68871 235.102 8.53306 232.258 12.0885 232.258H31.2879C34.8433 232.258 37.6877 235.102 37.6877 238.657C38.0432 261.234 39.4654 279.901 39.8209 302.655ZM91.2221 215.369C114.688 215.369 128.376 232.08 128.376 255.012C128.376 261.768 126.065 264.79 119.488 264.79H108.822C102.599 264.79 99.0441 261.234 99.0441 255.19C99.0441 247.013 96.5552 244.346 90.6888 244.346C83.0446 244.346 81.2668 251.813 81.2668 259.99C81.2668 274.745 88.3777 282.389 97.2663 282.389C102.422 282.389 107.399 280.256 110.777 278.656C114.155 277.234 118.421 279.901 118.421 284.7V298.211C118.421 303.366 117.888 305.322 113.444 307.455C109.177 309.766 98.8663 311.366 91.9332 311.366C66.1562 311.366 45.1791 295.189 45.1791 263.368C45.1791 231.369 65.2674 215.369 91.2221 215.369ZM218.912 223.902C218.557 240.791 220.69 261.946 218.557 294.478C216.601 323.099 196.158 344.787 169.314 347.098C157.759 347.987 148.515 345.321 141.582 342.654C138.737 341.41 136.071 339.454 136.071 335.01V320.077C136.071 314.744 138.915 313.322 141.937 313.322C143.182 313.322 144.426 313.499 145.493 313.855C149.581 315.099 153.315 315.811 156.87 315.811C172.869 315.811 183.536 303.366 184.425 282.567H181.225C179.447 297.144 171.27 308.877 159.714 308.877C146.026 308.877 134.826 297.322 134.826 277.59C134.826 271.723 133.937 238.835 133.76 223.902C133.76 220.525 136.782 217.503 140.159 217.503H163.448C167.181 217.503 170.025 220.347 169.847 223.902C168.781 237.235 167.536 249.679 167.536 261.057C167.536 276.345 178.203 275.456 184.602 275.278C185.136 260.346 185.847 242.568 185.847 223.902C185.847 220.169 188.869 217.503 192.247 217.503H212.513C215.89 217.503 218.912 220.525 218.912 223.902ZM308.765 223.902C312.854 264.079 311.076 279.901 311.432 302.478C311.432 306.033 308.41 308.877 305.032 308.877H281.744C278.188 308.877 274.988 306.389 275.344 302.478C275.877 295.9 276.233 289.145 276.588 282.567H273.211C271.611 297.144 263.433 308.877 251.878 308.877C238.19 308.877 226.812 297.322 226.812 277.59C226.812 271.723 226.101 238.835 225.923 223.902C225.923 220.525 228.768 217.503 232.323 217.503H255.611C259.167 217.503 262.189 220.169 262.011 223.902C260.944 237.235 259.7 249.679 259.7 261.057C259.7 276.523 270.366 275.456 276.944 275.278C277.655 256.612 277.299 238.835 275.344 223.902C274.811 220.525 278.188 217.503 281.744 217.503H302.365C305.921 217.503 308.41 220.525 308.765 223.902ZM400.602 223.902C404.691 264.079 402.913 279.901 403.269 302.478C403.269 306.033 400.247 308.877 396.869 308.877H373.581C370.026 308.877 366.826 306.389 367.181 302.478C367.715 295.9 368.07 289.145 368.426 282.567H365.048C363.448 297.144 355.271 308.877 343.715 308.877C330.027 308.877 318.649 297.322 318.649 277.59C318.649 271.723 317.938 238.835 317.761 223.902C317.761 220.525 320.605 217.503 324.16 217.503H347.449C351.004 217.503 354.026 220.169 353.848 223.902C352.782 237.235 351.537 249.679 351.537 261.057C351.537 276.523 362.204 275.456 368.781 275.278C369.492 256.612 369.137 238.835 367.181 223.902C366.648 220.525 370.026 217.503 373.581 217.503H394.203C397.758 217.503 400.247 220.525 400.602 223.902Z" fill="#F26935"/>
<defs>
<linearGradient id="paint0_linear_36_187" x1="203.738" y1="25.1157" x2="203.738" y2="167.054" gradientUnits="userSpaceOnUse">
<stop stop-color="#F26935"/>
<stop offset="1" stop-color="#F9B21A"/>
</linearGradient>
<linearGradient id="paint1_linear_36_187" x1="203.262" y1="25.1147" x2="203.262" y2="167.053" gradientUnits="userSpaceOnUse">
<stop stop-color="#F26935"/>
<stop offset="1" stop-color="#F9B21A"/>
</linearGradient>
</defs>
</svg>
