<svg width="1382" height="775" viewBox="0 0 1382 775" fill="none" xmlns="http://www.w3.org/2000/svg">
<g clip-path="url(#clip0_36_196)">
<path d="M-15.0842 220.464C-58.5511 128.004 -93.0317 57.4645 -48.9423 112.424C-32.6003 132.795 -21.8262 171.392 -15.0842 220.464C25.3393 306.45 73.5348 411.395 73.5348 451.989C73.5348 536.233 159.24 568.016 253.352 557.677C347.463 547.338 454.04 536.424 558.933 568.016C663.826 599.607 693.904 562.809 712.519 557.677C731.134 552.545 795.512 535.558 871 595.528C946.488 655.498 978.374 540.036 1066.52 481.28C1154.67 422.524 1153.27 614.297 1300.96 498.009C1448.66 381.722 1361.5 71.213 1401.83 247.481C1442.15 423.749 1401.83 833 1401.83 833L-29.7183 818.719C-29.7183 818.719 13.2789 426.904 -15.0842 220.464Z" fill="#F26935"/>
<path d="M-99.3951 -73.0633C-189.157 -226.515 29.8043 296.31 29.8043 418.185C29.8043 540.06 120.214 586.041 219.491 571.083C318.767 556.126 431.194 540.337 541.844 586.041C652.495 631.744 684.223 578.508 703.86 571.083C723.497 563.659 791.409 539.085 871.04 625.843C950.671 712.601 984.307 545.563 1077.29 460.561C1170.28 375.559 1168.8 652.996 1324.6 484.763C1480.41 316.53 1388.46 -132.683 1431 122.324" stroke="#2C2C2C" stroke-width="2.81329"/>
</g>
<defs>
<clipPath id="clip0_36_196">
<rect width="1382" height="775" fill="white"/>
</clipPath>
</defs>
</svg>
